<svg width="30" height="30" viewBox="0 0 30 30" fill="none" xmlns="http://www.w3.org/2000/svg">
<path d="M24.6215 19.9463L17.3248 7.33483C16.6042 6.07369 14.8926 5.62328 13.6315 6.34393C13.1811 6.61418 12.8207 6.97451 12.6406 7.33483L5.34393 19.9463C4.62328 21.2075 5.07369 22.919 6.33483 23.6397C6.78524 23.9099 7.23565 24 7.68606 24H22.1893C23.7207 24 24.8917 22.7389 24.8917 21.2975C24.9818 20.757 24.8016 20.3066 24.6215 19.9463ZM14.9827 20.3967C14.4422 20.3967 14.0819 20.0364 14.0819 19.4959C14.0819 18.9554 14.4422 18.5951 14.9827 18.5951C15.5232 18.5951 15.8835 18.9554 15.8835 19.4959C15.8835 20.0364 15.5232 20.3967 14.9827 20.3967ZM15.8835 15.8926C15.8835 16.4331 15.5232 16.7934 14.9827 16.7934C14.4422 16.7934 14.0819 16.4331 14.0819 15.8926V12.2893C14.0819 11.7489 14.4422 11.3885 14.9827 11.3885C15.5232 11.3885 15.8835 11.7489 15.8835 12.2893V15.8926Z" fill="#0D0D0E"/>
</svg>
