<svg width="30" height="30" viewBox="0 0 30 30" fill="none" xmlns="http://www.w3.org/2000/svg">
<path d="M12.4084 10.999H19.9947C20.2598 10.999 20.514 10.8937 20.7015 10.7063C20.8889 10.5188 20.9942 10.2646 20.9942 9.99952C20.9942 9.73443 20.8889 9.4802 20.7015 9.29275C20.514 9.10531 20.2598 9 19.9947 9H9.99952C9.8689 9.00158 9.73986 9.02875 9.6197 9.07996C9.37547 9.18139 9.18139 9.37547 9.07996 9.6197C9.02875 9.73986 9.00158 9.8689 9 9.99952V19.9947C9 20.2598 9.10531 20.514 9.29275 20.7015C9.4802 20.8889 9.73443 20.9942 9.99952 20.9942C10.2646 20.9942 10.5188 20.8889 10.7063 20.7015C10.8937 20.514 10.999 20.2598 10.999 19.9947V12.4084L19.285 20.7043C19.3779 20.798 19.4885 20.8724 19.6103 20.9231C19.7321 20.9739 19.8627 21 19.9947 21C20.1266 21 20.2573 20.9739 20.3791 20.9231C20.5009 20.8724 20.6114 20.798 20.7043 20.7043C20.798 20.6114 20.8724 20.5009 20.9231 20.3791C20.9739 20.2573 21 20.1266 21 19.9947C21 19.8627 20.9739 19.7321 20.9231 19.6103C20.8724 19.4885 20.798 19.3779 20.7043 19.285L12.4084 10.999Z" fill="#0D0D0E"/>
</svg>
