<svg width="30" height="30" viewBox="0 0 30 30" fill="none" xmlns="http://www.w3.org/2000/svg">
<path fill-rule="evenodd" clip-rule="evenodd" d="M8 8.25C8.41421 8.25 8.75 8.58579 8.75 9V20C8.75 20.4142 8.41421 20.75 8 20.75C7.58579 20.75 7.25 20.4142 7.25 20V9C7.25 8.58579 7.58579 8.25 8 8.25Z" fill="#0D0D0E"/>
<path fill-rule="evenodd" clip-rule="evenodd" d="M13.25 9C13.25 8.58579 13.5858 8.25 14 8.25H25C25.4142 8.25 25.75 8.58579 25.75 9C25.75 9.41421 25.4142 9.75 25 9.75H14C13.5858 9.75 13.25 9.41421 13.25 9Z" fill="#0D0D0E"/>
<path fill-rule="evenodd" clip-rule="evenodd" d="M13.25 14C13.25 13.5858 13.5858 13.25 14 13.25H22C22.4142 13.25 22.75 13.5858 22.75 14C22.75 14.4142 22.4142 14.75 22 14.75H14C13.5858 14.75 13.25 14.4142 13.25 14Z" fill="#0D0D0E"/>
<path fill-rule="evenodd" clip-rule="evenodd" d="M13.25 19C13.25 18.5858 13.5858 18.25 14 18.25H20C20.4142 18.25 20.75 18.5858 20.75 19C20.75 19.4142 20.4142 19.75 20 19.75H14C13.5858 19.75 13.25 19.4142 13.25 19Z" fill="#0D0D0E"/>
<path fill-rule="evenodd" clip-rule="evenodd" d="M4.46967 16.4697C4.76256 16.1768 5.23744 16.1768 5.53033 16.4697L8 18.9393L10.4697 16.4697C10.7626 16.1768 11.2374 16.1768 11.5303 16.4697C11.8232 16.7626 11.8232 17.2374 11.5303 17.5303L8.53033 20.5303C8.23744 20.8232 7.76256 20.8232 7.46967 20.5303L4.46967 17.5303C4.17678 17.2374 4.17678 16.7626 4.46967 16.4697Z" fill="#0D0D0E"/>
</svg>
