<svg width="30" height="30" viewBox="0 0 30 30" fill="none" xmlns="http://www.w3.org/2000/svg">
<path d="M20.92 9.6197C20.8186 9.37547 20.6245 9.18139 20.3803 9.07996C20.2601 9.02875 20.1311 9.00158 20.0005 9H10.0053C9.74022 9 9.48599 9.10531 9.29855 9.29275C9.1111 9.4802 9.0058 9.73443 9.0058 9.99952C9.0058 10.2646 9.1111 10.5188 9.29855 10.7063C9.48599 10.8937 9.74022 10.999 10.0053 10.999H17.5916L9.29566 19.285C9.20197 19.3779 9.12761 19.4885 9.07687 19.6103C9.02613 19.7321 9 19.8627 9 19.9947C9 20.1266 9.02613 20.2573 9.07687 20.3791C9.12761 20.5009 9.20197 20.6114 9.29566 20.7043C9.38857 20.798 9.49912 20.8724 9.62092 20.9231C9.74272 20.9739 9.87336 21 10.0053 21C10.1373 21 10.2679 20.9739 10.3897 20.9231C10.5115 20.8724 10.6221 20.798 10.715 20.7043L19.001 12.4084V19.9947C19.001 20.2598 19.1063 20.514 19.2937 20.7015C19.4812 20.8889 19.7354 20.9942 20.0005 20.9942C20.2656 20.9942 20.5198 20.8889 20.7072 20.7015C20.8947 20.514 21 20.2598 21 19.9947V9.99952C20.9984 9.8689 20.9713 9.73986 20.92 9.6197Z" fill="#0D0D0E"/>
</svg>
