<svg width="50" height="50" viewBox="0 0 50 50" fill="none" xmlns="http://www.w3.org/2000/svg">
<g clip-path="url(#clip0_7223_6369)">
<path d="M45 24.9936C45 36.0457 36.0457 45 24.9936 45C13.9415 45 5 36.0457 5 24.9936C5 13.9415 13.9543 5 25.0064 5C36.0585 5 45.0128 13.9543 45.0128 24.9936" fill="#FFE074"/>
<path d="M45 24.9936C45 36.0457 36.0457 45 24.9936 45C13.9415 45 5 36.0457 5 24.9936C5 13.9415 13.9543 5 25.0064 5C36.0585 5 45.0128 13.9543 45.0128 24.9936" fill="#FFE074"/>
<path d="M43.6826 15.694C43.4907 15.5021 42.2755 16.001 41.0347 15.3742C38.4891 14.0822 32.0676 12.8286 27.8847 15.7963C27.437 16.1161 25.5694 16.1673 25.0449 16.1417C24.5205 16.1673 22.6529 16.1161 22.2051 15.7963C18.0222 12.8286 11.6007 14.0822 9.05516 15.3742C7.82715 16.001 6.59913 15.5149 6.42005 15.694C6.13863 15.9499 6.13863 17.0244 6.42005 17.293C6.70147 17.5616 8.0574 17.8686 8.33882 18.6617C8.62024 19.4548 8.62024 24.175 10.7948 25.7995C12.8415 27.3218 17.6001 27.7823 20.619 26.0682C23.2541 24.5715 23.1645 21.412 23.6506 19.5316C23.8169 18.8536 24.3158 18.521 25.0449 18.521C25.7741 18.521 26.2729 18.8536 26.4392 19.5316C26.9253 21.412 26.8358 24.5587 29.4709 26.0682C32.4898 27.7823 37.2611 27.3218 39.295 25.7995C41.4824 24.175 41.4824 19.4548 41.751 18.6617C42.0325 17.8686 43.3884 17.5616 43.6698 17.293C43.9512 17.0244 43.9512 15.9626 43.6698 15.694M21.233 19.749C21.1434 20.977 20.926 23.3307 19.4549 24.175C18.5467 24.6867 17.3698 24.9937 16.1418 24.9937C14.7859 24.9937 12.8927 24.6099 12.1636 24.0599C11.2426 23.3691 10.8972 20.5421 10.7565 19.4804C10.6669 18.8152 10.4495 17.1651 11.1914 16.9092C12.3682 16.5127 14.0056 16.1929 15.6941 16.1929C16.4616 16.1929 19.0456 16.2441 20.312 17.0244C21.4248 17.7151 21.2841 19.0838 21.233 19.7618M39.3206 19.4804C39.1927 20.5421 38.8345 23.3947 37.9135 24.0727C37.1844 24.6227 35.2912 25.0065 33.9352 25.0065C32.7072 25.0065 31.5304 24.6995 30.635 24.1878C29.1639 23.3435 28.9464 21.0026 28.8569 19.7746C28.8057 19.0966 28.6522 17.7151 29.7779 17.0244C31.0315 16.2441 33.6282 16.1929 34.3957 16.1929C36.0715 16.1929 37.7216 16.4999 38.8985 16.9092C39.6404 17.1651 39.4101 18.7896 39.3334 19.4676" fill="#31313B"/>
<path d="M15.5146 20.5803C15.5146 22.4862 16.5508 24.034 17.8428 24.034C19.1347 24.034 20.1709 22.499 20.1709 20.5803C20.1709 18.6615 19.1347 17.1265 17.8428 17.1265C16.5508 17.1265 15.5146 18.6743 15.5146 20.5803Z" fill="#504122"/>
<path d="M29.8931 20.5803C29.8931 22.4862 30.9292 24.034 32.2212 24.034C33.5132 24.034 34.5493 22.499 34.5493 20.5803C34.5493 18.6615 33.5132 17.1265 32.2212 17.1265C30.9292 17.1265 29.8931 18.6743 29.8931 20.5803Z" fill="#504122"/>
<path d="M19.749 36.5702C19.749 36.5702 20.8619 32.1187 25.3007 32.1187C29.7394 32.1187 30.8651 36.5702 30.8651 36.5702C30.8651 36.5702 29.7522 35.4573 25.3007 35.4573C20.8491 35.4573 19.749 36.5702 19.749 36.5702Z" fill="#504122"/>
<path d="M33.1294 31.0571L29.4709 30.0082C29.4709 30.0082 29.4965 29.9314 29.4965 29.9059C29.4965 29.2918 28.9976 28.793 28.3836 28.793H21.7191C21.1051 28.793 20.6062 29.2918 20.6062 29.9059C20.6062 29.9442 20.619 29.9826 20.6318 30.0082L16.9733 31.0571C16.3849 31.2234 16.0395 31.8374 16.2058 32.4386C16.3721 33.0271 16.9861 33.3724 17.5746 33.2061L19.7236 32.5921C19.4677 32.9247 19.4294 33.3724 19.6085 33.7434C19.8771 34.2807 20.5423 34.5109 21.0923 34.2423L22.8448 33.3596C22.8704 33.7434 23.1006 34.0632 23.4332 34.2295C23.9833 34.5109 24.6484 34.2807 24.9171 33.7434L25.0322 33.5131L25.1473 33.7434C25.4159 34.2807 26.0811 34.5109 26.6312 34.2423C26.9637 34.076 27.1812 33.7434 27.2196 33.3724L28.9721 34.2423C29.5221 34.5237 30.1873 34.2934 30.4559 33.7562C30.635 33.3724 30.5966 32.9247 30.3536 32.6049L32.5026 33.2189C33.091 33.3852 33.705 33.0398 33.8713 32.4514C34.0376 31.863 33.705 31.249 33.1038 31.0827" fill="#31313B"/>
</g>
<defs>
<clipPath id="clip0_7223_6369">
<rect width="40" height="40" fill="white" transform="translate(5 5)"/>
</clipPath>
</defs>
</svg>
