<svg width="30" height="30" viewBox="0 0 30 30" fill="none" xmlns="http://www.w3.org/2000/svg">
<g clip-path="url(#clip0_18_896)">
<path d="M23.3664 18.4992H23.1292C17.6523 18.4992 12.1755 18.4986 6.69812 18.5027C6.51766 18.5027 6.43541 18.4695 6.39044 18.2723C5.94548 16.3192 5.4875 14.369 5.02834 12.4195C4.95378 12.1021 5.02123 11.8361 5.28395 11.6407C5.54904 11.4435 5.8295 11.4628 6.11293 11.6232C7.46912 12.3909 8.82708 13.1551 10.1844 13.921C10.2608 13.9642 10.3377 14.0074 10.4353 14.0622C10.4838 13.9963 10.5318 13.935 10.575 13.8703C11.8069 12.0455 13.0394 10.2214 14.2678 8.39488C14.4305 8.15337 14.6329 7.99469 14.9364 7.99994C15.2033 8.00461 15.3849 8.15045 15.5423 8.35054C16.9311 10.1187 18.3222 11.8845 19.7133 13.6509C19.8168 13.7822 19.9221 13.9123 20.0345 14.0529C20.2115 13.9379 20.3771 13.8306 20.5422 13.7215C21.5913 13.0302 22.6392 12.336 23.6907 11.6483C24.1481 11.349 24.6924 11.5398 24.8137 12.0374C24.8386 12.14 24.8398 12.2579 24.8161 12.3605C24.3504 14.376 23.8788 16.3904 23.4079 18.4047C23.4013 18.4321 23.3848 18.4578 23.3664 18.4986V18.4992Z" fill="#0D0D0E"/>
<path d="M6.77928 19.9087H23.0577C22.9275 20.4524 22.8109 20.9856 22.6695 21.5123C22.5902 21.8075 22.3381 21.979 22.0293 21.9977C21.963 22.0018 21.8967 22 21.8299 22C17.224 22 12.6176 22 8.0118 22C7.43666 22 7.23193 21.8425 7.10057 21.2901C6.99229 20.8374 6.88874 20.383 6.77869 19.9087H6.77928Z" fill="#0D0D0E"/>
</g>
<defs>
<clipPath id="clip0_18_896">
<rect width="19.8333" height="14" fill="white" transform="translate(5 8)"/>
</clipPath>
</defs>
</svg>
