<svg width="30" height="30" viewBox="0 0 30 30" fill="none" xmlns="http://www.w3.org/2000/svg">
<path fill-rule="evenodd" clip-rule="evenodd" d="M5.12868 8.12868C5.69129 7.56607 6.45435 7.25 7.25 7.25H22.25C23.0457 7.25 23.8087 7.56607 24.3713 8.12868C24.9339 8.69129 25.25 9.45435 25.25 10.25V20.75C25.25 21.5456 24.9339 22.3087 24.3713 22.8713C23.8087 23.4339 23.0457 23.75 22.25 23.75H7.25C6.45435 23.75 5.69129 23.4339 5.12868 22.8713C4.56607 22.3087 4.25 21.5456 4.25 20.75V10.25C4.25 9.45435 4.56607 8.69129 5.12868 8.12868ZM7.25 8.75C6.85218 8.75 6.47064 8.90804 6.18934 9.18934C5.90804 9.47064 5.75 9.85218 5.75 10.25V20.75C5.75 21.1478 5.90804 21.5294 6.18934 21.8107C6.47064 22.092 6.85218 22.25 7.25 22.25H22.25C22.6478 22.25 23.0294 22.092 23.3107 21.8107C23.592 21.5294 23.75 21.1478 23.75 20.75V10.25C23.75 9.85218 23.592 9.47064 23.3107 9.18934C23.0294 8.90804 22.6478 8.75 22.25 8.75H7.25ZM11.375 11.75C11.0766 11.75 10.7905 11.8685 10.5795 12.0795C10.3685 12.2905 10.25 12.5766 10.25 12.875C10.25 13.0227 10.2791 13.169 10.3356 13.3055C10.3922 13.442 10.475 13.566 10.5795 13.6705C10.684 13.775 10.808 13.8578 10.9445 13.9144C11.081 13.9709 11.2273 14 11.375 14C11.5227 14 11.669 13.9709 11.8055 13.9144C11.942 13.8578 12.066 13.775 12.1705 13.6705C12.275 13.566 12.3578 13.442 12.4144 13.3055C12.4709 13.169 12.5 13.0227 12.5 12.875C12.5 12.5766 12.3815 12.2905 12.1705 12.0795C11.9595 11.8685 11.6734 11.75 11.375 11.75ZM9.51884 11.0188C10.0111 10.5266 10.6788 10.25 11.375 10.25C12.0712 10.25 12.7389 10.5266 13.2312 11.0188C13.7234 11.5111 14 12.1788 14 12.875C14 13.2197 13.9321 13.5611 13.8002 13.8795C13.6683 14.198 13.4749 14.4874 13.2312 14.7312C12.9874 14.9749 12.698 15.1683 12.3795 15.3002C12.0611 15.4321 11.7197 15.5 11.375 15.5C11.0303 15.5 10.6889 15.4321 10.3705 15.3002C10.052 15.1683 9.7626 14.9749 9.51884 14.7312C9.27509 14.4874 9.08173 14.198 8.94982 13.8795C8.8179 13.5611 8.75 13.2197 8.75 12.875C8.75 12.1788 9.02656 11.5111 9.51884 11.0188ZM17 12.5C17 12.0858 17.3358 11.75 17.75 11.75H21.5C21.9142 11.75 22.25 12.0858 22.25 12.5C22.25 12.9142 21.9142 13.25 21.5 13.25H17.75C17.3358 13.25 17 12.9142 17 12.5ZM17 15.5C17 15.0858 17.3358 14.75 17.75 14.75H21.5C21.9142 14.75 22.25 15.0858 22.25 15.5C22.25 15.9142 21.9142 16.25 21.5 16.25H17.75C17.3358 16.25 17 15.9142 17 15.5ZM11.375 17.749C10.8374 17.749 10.3128 17.914 9.87195 18.2217C9.62254 18.3958 9.40676 18.6108 9.23282 18.8561C9.91413 19.1166 10.6395 19.2509 11.3731 19.25H11.3752C12.1094 19.2511 12.8353 19.1169 13.5172 18.8561C13.3432 18.6108 13.1275 18.3958 12.8781 18.2217C12.4372 17.914 11.9126 17.749 11.375 17.749ZM9.01339 16.9917C9.70601 16.5082 10.5303 16.249 11.375 16.249C12.2197 16.249 13.044 16.5082 13.7366 16.9917C14.4292 17.4751 14.9568 18.1595 15.248 18.9524C15.3771 19.304 15.2271 19.6969 14.8966 19.873C13.8123 20.4505 12.6023 20.7517 11.3738 20.75C10.1461 20.7513 8.93699 20.4501 7.85341 19.873C7.52287 19.6969 7.37286 19.304 7.50199 18.9524C7.79321 18.1595 8.32076 17.4751 9.01339 16.9917ZM11.3738 20.75C11.3735 20.75 11.3732 20.75 11.3728 20.75L11.374 20L11.3749 20.75C11.3745 20.75 11.3742 20.75 11.3738 20.75ZM17 18.5C17 18.0858 17.3358 17.75 17.75 17.75H21.5C21.9142 17.75 22.25 18.0858 22.25 18.5C22.25 18.9142 21.9142 19.25 21.5 19.25H17.75C17.3358 19.25 17 18.9142 17 18.5Z" fill="#0D0D0E"/>
</svg>
