<svg width="30" height="30" viewBox="0 0 30 30" fill="none" xmlns="http://www.w3.org/2000/svg">
<path d="M9.97148 6.19061C10.7112 6.21746 11.3221 6.50679 11.7296 7.1302C12.1609 7.78999 12.5737 8.46351 12.9603 9.15016C13.5019 10.113 13.2019 11.3133 12.285 11.9337C11.9771 12.1419 11.6514 12.3245 11.3352 12.5213C10.963 12.7534 10.8544 13.0403 10.9868 13.4532C11.609 15.3944 12.6441 17.0856 14.0884 18.5263C14.3652 18.8025 14.6825 18.8449 15.0232 18.6468C15.3191 18.475 15.6072 18.2889 15.9025 18.1153C16.9531 17.4979 18.2029 17.786 18.8579 18.8097C19.2468 19.4176 19.6227 20.0344 19.9848 20.6585C20.5951 21.709 20.3022 22.9284 19.2779 23.587C18.6771 23.9736 18.0651 24.344 17.4452 24.6996C16.7431 25.1023 16.02 25.0939 15.3119 24.7121C11.4677 22.6408 8.72228 19.5924 7.14974 15.5143C6.40404 13.5784 6.05326 11.5639 6.03357 9.49199C6.02582 8.64964 6.38375 8.00118 7.10619 7.55972C7.67173 7.21431 8.23906 6.87188 8.8052 6.52707C9.16314 6.30933 9.54733 6.18524 9.97089 6.19001L9.97148 6.19061Z" fill="black"/>
<path d="M25.3645 14.892C25.3174 15.3878 25.2798 15.8847 25.2196 16.3793C25.1677 16.8064 24.8133 17.0647 24.3951 17.0063C24.0121 16.9532 23.7538 16.5797 23.8075 16.1687C24.1869 13.2664 23.3428 10.7716 21.2626 8.71284C20.0044 7.46721 18.47 6.73106 16.7269 6.42562C16.2311 6.33852 15.9657 6.01339 16.0271 5.59222C16.0868 5.18894 16.5252 4.93182 16.9739 5.01594C20.1541 5.6125 22.5362 7.31509 24.1165 10.1231C24.9463 11.5978 25.3299 13.1996 25.3639 14.8926L25.3645 14.892Z" fill="black"/>
<path d="M22.488 14.9332C22.4617 15.2196 22.4367 15.5608 22.3985 15.9002C22.3478 16.3483 22.0083 16.6233 21.5866 16.5702C21.1767 16.5189 20.9142 16.1544 20.9793 15.7088C21.1242 14.7155 21.0341 13.7443 20.6499 12.8178C19.8517 10.8915 18.4295 9.69719 16.375 9.27065C16.2587 9.24619 16.1387 9.22889 16.029 9.18593C15.6883 9.05409 15.5088 8.67587 15.6096 8.32569C15.7062 7.99221 16.0594 7.7691 16.4072 7.82279C19.6078 8.31436 22.0901 10.9058 22.4355 14.1201C22.4623 14.3713 22.4683 14.6248 22.488 14.9332Z" fill="black"/>
<path d="M19.6137 15.0018C19.5994 15.1289 19.5904 15.3538 19.5457 15.5709C19.4687 15.9438 19.1328 16.1848 18.7809 16.1424C18.3931 16.0959 18.1402 15.7857 18.1396 15.3866C18.1396 15.0095 18.1807 14.6176 18.0936 14.2585C17.8121 13.0928 17.0646 12.3596 15.8858 12.0894C15.4198 11.9826 15.1729 11.769 15.149 11.4087C15.118 10.941 15.495 10.5848 15.9788 10.6558C17.0324 10.8103 17.9021 11.3103 18.5888 12.1174C19.2713 12.9186 19.6 13.8558 19.6137 15.0012V15.0018Z" fill="black"/>
</svg>
