<svg width="30" height="30" viewBox="0 0 30 30" fill="none" xmlns="http://www.w3.org/2000/svg">
<g clip-path="url(#clip0_1061_79527)">
<path d="M21.78 5.82C21.25 5.29 20.55 5 19.8 5H7.8C7.59 5 7.38 5.08 7.23 5.23C7.08 5.39 7 5.59 7 5.8V21.8C7 22.01 7.08 22.21 7.23 22.37C7.38 22.52 7.59 22.6 7.8 22.6H9V23.8C9 24.01 9.08 24.21 9.23 24.37C9.38 24.52 9.59 24.6 9.8 24.6C10.01 24.6 10.21 24.52 10.36 24.37C10.52 24.21 10.6 24.01 10.6 23.8V22.6H19.8C20.55 22.6 21.25 22.31 21.78 21.78C22.31 21.25 22.6 20.55 22.6 19.8V7.8C22.6 7.05 22.31 6.35 21.78 5.82ZM21 19.8C21 20.12 20.87 20.42 20.65 20.65C20.42 20.88 20.12 21 19.8 21H18.6V6.6H19.8C20.12 6.6 20.42 6.72 20.65 6.95C20.87 7.18 21 7.48 21 7.8V19.8Z" fill="black"/>
</g>
<defs>
<clipPath id="clip0_1061_79527">
<rect width="15.6" height="19.6" fill="white" transform="translate(7 5)"/>
</clipPath>
</defs>
</svg>
