<svg width="30" height="30" viewBox="0 0 30 30" fill="none" xmlns="http://www.w3.org/2000/svg">
<path fill-rule="evenodd" clip-rule="evenodd" d="M15 23.3C19.584 23.3 23.3 19.584 23.3 15C23.3 10.416 19.584 6.7 15 6.7C10.416 6.7 6.7 10.416 6.7 15C6.7 19.584 10.416 23.3 15 23.3ZM15 25C20.5228 25 25 20.5228 25 15C25 9.47715 20.5228 5 15 5C9.47715 5 5 9.47715 5 15C5 20.5228 9.47715 25 15 25Z" fill="#0D0D0E"/>
<path fill-rule="evenodd" clip-rule="evenodd" d="M19.0344 11.1696C19.3729 11.4416 19.4329 11.9444 19.1684 12.2925L14.3073 18.6925C14.1675 18.8766 13.9563 18.9887 13.7294 18.9992C13.5025 19.0097 13.2824 18.9176 13.127 18.7472L10.2104 15.5472C9.91657 15.2248 9.93245 14.7186 10.2458 14.4164C10.5592 14.1142 11.0514 14.1305 11.3452 14.4529L13.6407 16.9713L17.9426 11.3075C18.2071 10.9593 18.6959 10.8976 19.0344 11.1696Z" fill="#0D0D0E"/>
</svg>
