<svg width="30" height="30" viewBox="0 0 30 30" fill="none" xmlns="http://www.w3.org/2000/svg">
<g clip-path="url(#clip0_18_897)">
<path d="M9.9151 14.4929C9.97171 14.4141 10.0232 14.3466 10.0708 14.2772C11.4058 12.329 12.7414 10.3808 14.0732 8.43075C14.2276 8.2045 14.4135 8.03449 14.6998 8.00511C15.0286 7.97199 15.2628 8.12449 15.4584 8.37013C16.7464 9.98707 18.0376 11.6015 19.3282 13.2166C19.6628 13.6353 19.998 14.0535 20.3447 14.4873C20.4271 14.4348 20.4998 14.3891 20.5712 14.3429C21.8194 13.5328 23.0656 12.7209 24.3156 11.9147C24.8155 11.5921 25.4042 11.7871 25.5406 12.3203C25.5702 12.4365 25.5695 12.5716 25.5425 12.6891C24.7821 15.9204 24.0177 19.1506 23.2502 22.3801C23.1537 22.7857 22.8674 23.0007 22.4338 23.0007C17.3376 23.002 12.2409 23.002 7.14475 23.0007C6.69761 23.0007 6.41389 22.7851 6.31481 22.367C5.55113 19.1506 4.7926 15.9354 4.02892 12.7209C3.95043 12.389 4.02763 12.1115 4.30235 11.9065C4.588 11.6928 4.8936 11.7059 5.20242 11.8784C6.6841 12.7041 8.16771 13.5278 9.65067 14.3516C9.73302 14.3973 9.81666 14.4404 9.91445 14.4929H9.9151ZM23.6098 14.1829C23.4953 14.2535 23.4271 14.2935 23.3609 14.3366C22.4801 14.9079 21.6 15.4798 20.7185 16.0498C20.2174 16.3736 19.8461 16.3092 19.473 15.8429C17.9765 13.9691 16.4794 12.0959 14.9816 10.2227C14.9353 10.1652 14.8864 10.1096 14.8291 10.0414C14.7584 10.1408 14.7076 10.2108 14.6593 10.2815C13.4009 12.119 12.1431 13.9572 10.884 15.7954C10.5469 16.2873 10.1769 16.373 9.65582 16.0836C8.48682 15.4335 7.31782 14.7829 6.14817 14.1329C6.08319 14.0966 6.01564 14.066 5.91527 14.016C6.27556 15.5354 6.6262 17.0136 6.97748 18.493H22.5875C22.9247 17.0711 23.2611 15.6529 23.6092 14.1829H23.6098ZM7.33841 20.0081C7.43877 20.4356 7.54557 20.8356 7.62213 21.2413C7.66202 21.4513 7.75016 21.5063 7.96891 21.5057C12.5104 21.4982 17.052 21.5001 21.5929 21.5001C21.6489 21.5001 21.7093 21.5125 21.7602 21.4963C21.8116 21.48 21.8843 21.4425 21.8946 21.4019C22.0091 20.9432 22.1134 20.4819 22.224 20.0081H7.33841Z" fill="#0D0D0E"/>
</g>
<defs>
<clipPath id="clip0_18_897">
<rect width="21.5625" height="15" fill="white" transform="translate(4 8)"/>
</clipPath>
</defs>
</svg>
