<svg width="50" height="50" viewBox="0 0 50 50" fill="none" xmlns="http://www.w3.org/2000/svg">
<g clip-path="url(#clip0_7223_15972)">
<path d="M45 24.9936C45 36.0457 36.0457 45 24.9936 45C13.9415 45 5 36.0457 5 24.9936C5 13.9415 13.9543 5 25.0064 5C36.0585 5 45.0128 13.9543 45.0128 24.9936" fill="#FFE074"/>
<path d="M45 24.9936C45 36.0457 36.0457 45 24.9936 45C13.9415 45 5 36.0457 5 24.9936C5 13.9415 13.9543 5 25.0064 5C36.0585 5 45.0128 13.9543 45.0128 24.9936" fill="#FFE074"/>
<path d="M35.3676 31.2488C35.1757 31.0697 34.8815 31.0569 34.664 31.2232C34.6129 31.2488 30.302 34.4468 24.9934 34.4468C19.6848 34.4468 15.374 31.2616 15.3228 31.2232C15.1693 30.9546 14.8239 30.8779 14.5553 31.0314C14.2995 31.1849 14.2099 31.5302 14.3634 31.7989C14.4018 31.8628 14.453 31.914 14.5041 31.9524C14.6448 32.1954 18.073 37.7726 24.9806 37.7726C31.8882 37.7726 35.3164 32.1826 35.4571 31.9524C35.5978 31.7221 35.5467 31.4279 35.3548 31.2488" fill="#504122"/>
<path d="M15.2974 20.5803C15.2974 22.4862 16.3335 24.034 17.6255 24.034C18.9174 24.034 19.9536 22.499 19.9536 20.5803C19.9536 18.6615 18.9174 17.1265 17.6255 17.1265C16.3335 17.1265 15.2974 18.6743 15.2974 20.5803Z" fill="#504122"/>
<path d="M30.3022 20.5803C30.3022 22.4862 31.3384 24.034 32.6304 24.034C33.9223 24.034 34.9585 22.499 34.9585 20.5803C34.9585 18.6615 33.9223 17.1265 32.6304 17.1265C31.3384 17.1265 30.3022 18.6743 30.3022 20.5803Z" fill="#504122"/>
<path fill-rule="evenodd" clip-rule="evenodd" d="M43.8616 16.3976C43.6569 16.3721 43.286 16.3976 42.9917 16.4232C41.6102 13.7114 38.796 11.8438 35.5597 11.8438C31.5431 11.8438 28.1788 14.6963 27.3857 18.4955C25.5821 18.6362 23.9831 18.5595 22.9598 18.4699C22.1667 14.6963 18.8024 11.8438 14.7986 11.8438C11.5495 11.8438 8.73526 13.7114 7.35375 16.436C7.04674 16.4104 6.62461 16.3721 6.38157 16.3976C6.38157 16.3976 5.74198 17.5361 5.94665 18.342C5.94665 18.342 6.30482 18.4827 6.61182 18.585C6.50949 19.1095 6.45832 19.6468 6.45832 20.184C6.45832 24.7891 10.2063 28.5243 14.7986 28.5243C18.8536 28.5243 22.2434 25.6077 22.9853 21.7702L23.0109 21.719C23.0109 21.719 23.2284 20.555 23.8168 20.3247H26.6694C26.6694 20.3247 27.0276 20.3375 27.3729 21.719C28.1021 25.5822 31.4919 28.5243 35.5725 28.5243C40.1775 28.5243 43.9128 24.7763 43.9128 20.184C43.9128 19.6212 43.8616 19.0711 43.7465 18.5467C44.0279 18.4571 44.3093 18.342 44.3093 18.342C44.514 17.5361 43.8744 16.3976 43.8744 16.3976H43.8616ZM14.7858 26.6183C11.2425 26.6183 8.3643 23.7401 8.3643 20.1968C8.3643 16.6535 11.2425 13.7753 14.7858 13.7753C18.3291 13.7753 21.2073 16.6535 21.2073 20.1968C21.2073 23.7401 18.3291 26.6183 14.7858 26.6183ZM35.5469 26.6183C32.0036 26.6183 29.1254 23.7401 29.1254 20.1968C29.1254 16.6535 32.0036 13.7753 35.5469 13.7753C39.0902 13.7753 41.9684 16.6535 41.9684 20.1968C41.9684 23.7401 39.0902 26.6183 35.5469 26.6183Z" fill="#31313B"/>
</g>
<defs>
<clipPath id="clip0_7223_15972">
<rect width="40" height="40" fill="white" transform="translate(5 5)"/>
</clipPath>
</defs>
</svg>
