<svg width="30" height="30" viewBox="0 0 30 30" fill="none" xmlns="http://www.w3.org/2000/svg">
<path fill-rule="evenodd" clip-rule="evenodd" d="M8 5C6.34315 5 5 6.34315 5 8V22C5 23.6569 6.34315 25 8 25H22C23.6569 25 25 23.6569 25 22V8C25 6.34315 23.6569 5 22 5H8ZM19.8233 12.2925C20.1067 11.9444 20.0423 11.4416 19.6797 11.1696C19.317 10.8976 18.7933 10.9593 18.5099 11.3075L13.9007 16.9713L11.4413 14.4529C11.1265 14.1305 10.5991 14.1142 10.2634 14.4164C9.92763 14.7186 9.91061 15.2248 10.2254 15.5472L13.3504 18.7472C13.5168 18.9176 13.7526 19.0097 13.9958 18.9992C14.2389 18.9887 14.4652 18.8766 14.615 18.6925L19.8233 12.2925Z" fill="#0D0D0E"/>
</svg>
