<svg width="30" height="30" viewBox="0 0 30 30" fill="none" xmlns="http://www.w3.org/2000/svg">
<path fill-rule="evenodd" clip-rule="evenodd" d="M7 9.28571C7 8.67951 7.24082 8.09812 7.66947 7.66947C8.09812 7.24082 8.67951 7 9.28571 7H10.331C10.9863 7 11.5577 7.44648 11.717 8.0819L12.5589 11.4518C12.6271 11.7246 12.6133 12.0114 12.5192 12.2764C12.4252 12.5413 12.255 12.7726 12.0301 12.9413L11.045 13.6804C10.9421 13.7573 10.92 13.8701 10.949 13.9486C11.379 15.118 12.058 16.18 12.939 17.061C13.82 17.942 14.882 18.621 16.0514 19.051C16.1299 19.08 16.2419 19.0579 16.3196 18.955L17.0587 17.9699C17.2274 17.745 17.4587 17.5748 17.7236 17.4808C17.9886 17.3867 18.2754 17.3729 18.5482 17.4411L21.9181 18.283C22.5535 18.4423 23 19.0137 23 19.6697V20.7143C23 21.3205 22.7592 21.9019 22.3305 22.3305C21.9019 22.7592 21.3205 23 20.7143 23H19C12.373 23 7 17.627 7 11V9.28571Z" fill="black"/>
</svg>
