<svg width="30" height="30" viewBox="0 0 30 30" fill="none" xmlns="http://www.w3.org/2000/svg">
<path d="M15.7692 15.7692C15.7692 15.9732 15.6882 16.1689 15.5439 16.3132C15.3996 16.4574 15.204 16.5385 15 16.5385C14.796 16.5385 14.6003 16.4574 14.456 16.3132C14.3118 16.1689 14.2307 15.9732 14.2307 15.7692C14.2307 15.5652 14.3118 15.3696 14.456 15.2253C14.6003 15.081 14.796 15 15 15C15.204 15 15.3996 15.081 15.5439 15.2253C15.6882 15.3696 15.7692 15.5652 15.7692 15.7692ZM10.3846 18.8462C10.5886 18.8462 10.7843 18.7651 10.9285 18.6209C11.0728 18.4766 11.1538 18.2809 11.1538 18.0769C11.1538 17.8729 11.0728 17.6773 10.9285 17.533C10.7843 17.3887 10.5886 17.3077 10.3846 17.3077C10.1806 17.3077 9.98492 17.3887 9.84066 17.533C9.6964 17.6773 9.61536 17.8729 9.61536 18.0769C9.61536 18.2809 9.6964 18.4766 9.84066 18.6209C9.98492 18.7651 10.1806 18.8462 10.3846 18.8462ZM11.1538 20.3846C11.1538 20.5886 11.0728 20.7843 10.9285 20.9285C10.7843 21.0728 10.5886 21.1538 10.3846 21.1538C10.1806 21.1538 9.98492 21.0728 9.84066 20.9285C9.6964 20.7843 9.61536 20.5886 9.61536 20.3846C9.61536 20.1806 9.6964 19.9849 9.84066 19.8407C9.98492 19.6964 10.1806 19.6154 10.3846 19.6154C10.5886 19.6154 10.7843 19.6964 10.9285 19.8407C11.0728 19.9849 11.1538 20.1806 11.1538 20.3846ZM12.6923 18.8462C12.8963 18.8462 13.0919 18.7651 13.2362 18.6209C13.3805 18.4766 13.4615 18.2809 13.4615 18.0769C13.4615 17.8729 13.3805 17.6773 13.2362 17.533C13.0919 17.3887 12.8963 17.3077 12.6923 17.3077C12.4883 17.3077 12.2926 17.3887 12.1484 17.533C12.0041 17.6773 11.923 17.8729 11.923 18.0769C11.923 18.2809 12.0041 18.4766 12.1484 18.6209C12.2926 18.7651 12.4883 18.8462 12.6923 18.8462ZM13.4615 20.3846C13.4615 20.5886 13.3805 20.7843 13.2362 20.9285C13.0919 21.0728 12.8963 21.1538 12.6923 21.1538C12.4883 21.1538 12.2926 21.0728 12.1484 20.9285C12.0041 20.7843 11.923 20.5886 11.923 20.3846C11.923 20.1806 12.0041 19.9849 12.1484 19.8407C12.2926 19.6964 12.4883 19.6154 12.6923 19.6154C12.8963 19.6154 13.0919 19.6964 13.2362 19.8407C13.3805 19.9849 13.4615 20.1806 13.4615 20.3846ZM15 18.8462C15.204 18.8462 15.3996 18.7651 15.5439 18.6209C15.6882 18.4766 15.7692 18.2809 15.7692 18.0769C15.7692 17.8729 15.6882 17.6773 15.5439 17.533C15.3996 17.3887 15.204 17.3077 15 17.3077C14.796 17.3077 14.6003 17.3887 14.456 17.533C14.3118 17.6773 14.2307 17.8729 14.2307 18.0769C14.2307 18.2809 14.3118 18.4766 14.456 18.6209C14.6003 18.7651 14.796 18.8462 15 18.8462ZM15.7692 20.3846C15.7692 20.5886 15.6882 20.7843 15.5439 20.9285C15.3996 21.0728 15.204 21.1538 15 21.1538C14.796 21.1538 14.6003 21.0728 14.456 20.9285C14.3118 20.7843 14.2307 20.5886 14.2307 20.3846C14.2307 20.1806 14.3118 19.9849 14.456 19.8407C14.6003 19.6964 14.796 19.6154 15 19.6154C15.204 19.6154 15.3996 19.6964 15.5439 19.8407C15.6882 19.9849 15.7692 20.1806 15.7692 20.3846ZM17.3077 18.8462C17.5117 18.8462 17.7073 18.7651 17.8516 18.6209C17.9959 18.4766 18.0769 18.2809 18.0769 18.0769C18.0769 17.8729 17.9959 17.6773 17.8516 17.533C17.7073 17.3887 17.5117 17.3077 17.3077 17.3077C17.1037 17.3077 16.908 17.3887 16.7637 17.533C16.6195 17.6773 16.5384 17.8729 16.5384 18.0769C16.5384 18.2809 16.6195 18.4766 16.7637 18.6209C16.908 18.7651 17.1037 18.8462 17.3077 18.8462ZM18.0769 20.3846C18.0769 20.5886 17.9959 20.7843 17.8516 20.9285C17.7073 21.0728 17.5117 21.1538 17.3077 21.1538C17.1037 21.1538 16.908 21.0728 16.7637 20.9285C16.6195 20.7843 16.5384 20.5886 16.5384 20.3846C16.5384 20.1806 16.6195 19.9849 16.7637 19.8407C16.908 19.6964 17.1037 19.6154 17.3077 19.6154C17.5117 19.6154 17.7073 19.6964 17.8516 19.8407C17.9959 19.9849 18.0769 20.1806 18.0769 20.3846ZM19.6154 18.8462C19.8194 18.8462 20.015 18.7651 20.1593 18.6209C20.3035 18.4766 20.3846 18.2809 20.3846 18.0769C20.3846 17.8729 20.3035 17.6773 20.1593 17.533C20.015 17.3887 19.8194 17.3077 19.6154 17.3077C19.4113 17.3077 19.2157 17.3887 19.0714 17.533C18.9272 17.6773 18.8461 17.8729 18.8461 18.0769C18.8461 18.2809 18.9272 18.4766 19.0714 18.6209C19.2157 18.7651 19.4113 18.8462 19.6154 18.8462ZM18.0769 15.7692C18.0769 15.9732 17.9959 16.1689 17.8516 16.3132C17.7073 16.4574 17.5117 16.5385 17.3077 16.5385C17.1037 16.5385 16.908 16.4574 16.7637 16.3132C16.6195 16.1689 16.5384 15.9732 16.5384 15.7692C16.5384 15.5652 16.6195 15.3696 16.7637 15.2253C16.908 15.081 17.1037 15 17.3077 15C17.5117 15 17.7073 15.081 17.8516 15.2253C17.9959 15.3696 18.0769 15.5652 18.0769 15.7692ZM19.6154 16.5385C19.8194 16.5385 20.015 16.4574 20.1593 16.3132C20.3035 16.1689 20.3846 15.9732 20.3846 15.7692C20.3846 15.5652 20.3035 15.3696 20.1593 15.2253C20.015 15.081 19.8194 15 19.6154 15C19.4113 15 19.2157 15.081 19.0714 15.2253C18.9272 15.3696 18.8461 15.5652 18.8461 15.7692C18.8461 15.9732 18.9272 16.1689 19.0714 16.3132C19.2157 16.4574 19.4113 16.5385 19.6154 16.5385Z" fill="#0D0D0E"/>
<path fill-rule="evenodd" clip-rule="evenodd" d="M9.61539 5C9.8194 5 10.0151 5.08104 10.1593 5.2253C10.3036 5.36956 10.3846 5.56522 10.3846 5.76923V7.30769H19.6154V5.76923C19.6154 5.56522 19.6964 5.36956 19.8407 5.2253C19.9849 5.08104 20.1806 5 20.3846 5C20.5886 5 20.7843 5.08104 20.9285 5.2253C21.0728 5.36956 21.1538 5.56522 21.1538 5.76923V7.30769H21.9231C22.7391 7.30769 23.5218 7.63187 24.0988 8.2089C24.6758 8.78594 25 9.56856 25 10.3846V21.9231C25 22.7391 24.6758 23.5218 24.0988 24.0988C23.5218 24.6758 22.7391 25 21.9231 25H8.07692C7.26087 25 6.47825 24.6758 5.90121 24.0988C5.32418 23.5218 5 22.7391 5 21.9231V10.3846C5 9.56856 5.32418 8.78594 5.90121 8.2089C6.47825 7.63187 7.26087 7.30769 8.07692 7.30769H8.84615V5.76923C8.84615 5.56522 8.9272 5.36956 9.07146 5.2253C9.21572 5.08104 9.41137 5 9.61539 5ZM23.4615 14.2308C23.4615 13.8227 23.2995 13.4314 23.0109 13.1429C22.7224 12.8544 22.3311 12.6923 21.9231 12.6923H8.07692C7.6689 12.6923 7.27758 12.8544 6.98907 13.1429C6.70055 13.4314 6.53846 13.8227 6.53846 14.2308V21.9231C6.53846 22.3311 6.70055 22.7224 6.98907 23.0109C7.27758 23.2995 7.6689 23.4615 8.07692 23.4615H21.9231C22.3311 23.4615 22.7224 23.2995 23.0109 23.0109C23.2995 22.7224 23.4615 22.3311 23.4615 21.9231V14.2308Z" fill="#0D0D0E"/>
</svg>
