<svg width="30" height="30" viewBox="0 0 30 30" fill="none" xmlns="http://www.w3.org/2000/svg">
<path fill-rule="evenodd" clip-rule="evenodd" d="M13.5 6C13.1023 6.00027 12.7209 6.15839 12.4396 6.43963C12.1584 6.72088 12.0003 7.10226 12 7.5H18C18 7.10218 17.842 6.72064 17.5607 6.43934C17.2794 6.15804 16.8978 6 16.5 6H13.5ZM10.807 6.178C11.0542 5.67453 11.4375 5.25043 11.9135 4.95383C12.3895 4.65723 12.9391 4.5 13.5 4.5H16.5C17.061 4.49982 17.6109 4.65695 18.0871 4.95357C18.5633 5.25018 18.9468 5.67438 19.194 6.178C19.691 6.22 20.186 6.27 20.68 6.328C22.177 6.501 23.25 7.788 23.25 9.257V22.5C23.25 23.2956 22.9339 24.0587 22.3713 24.6213C21.8087 25.1839 21.0456 25.5 20.25 25.5H9.75C8.95435 25.5 8.19129 25.1839 7.62868 24.6213C7.06607 24.0587 6.75 23.2956 6.75 22.5V9.257C6.75 7.787 7.823 6.501 9.32 6.327C9.813 6.27 10.309 6.221 10.807 6.178Z" fill="black"/>
</svg>
