<svg width="30" height="30" viewBox="0 0 30 30" fill="none" xmlns="http://www.w3.org/2000/svg">
<path d="M19.0249 6.764C18.8813 6.25602 18.5758 5.80882 18.1547 5.49041C17.7337 5.172 17.2202 4.99981 16.6923 5H13.4615C12.3523 5 11.4154 5.74631 11.1289 6.764M19.0249 6.764C19.0842 6.97292 19.1154 7.19477 19.1154 7.42308C19.1154 7.63729 19.0303 7.84273 18.8788 7.9942C18.7273 8.14567 18.5219 8.23077 18.3077 8.23077H11.8462C11.6319 8.23077 11.4265 8.14567 11.275 7.9942C11.1236 7.84273 11.0385 7.63729 11.0385 7.42308C11.0385 7.19477 11.0708 6.97292 11.1289 6.764M19.0249 6.764C19.7206 6.81677 20.412 6.88246 21.1002 6.96215C22.2848 7.1 23.1538 8.122 23.1538 9.31523V23.5769C23.1538 24.2196 22.8986 24.8359 22.4441 25.2903C21.9897 25.7447 21.3734 26 20.7308 26H9.42308C8.78044 26 8.16412 25.7447 7.7097 25.2903C7.25529 24.8359 7 24.2196 7 23.5769V9.31523C7 8.122 7.868 7.1 9.05369 6.96215C9.74404 6.88222 10.4359 6.81616 11.1289 6.764" stroke="black" stroke-width="1.5" stroke-linecap="round" stroke-linejoin="round"/>
</svg>
