<svg width="50" height="50" viewBox="0 0 50 50" fill="none" xmlns="http://www.w3.org/2000/svg">
<g clip-path="url(#clip0_7223_5631)">
<path d="M38.5347 30.4184L44.1401 27.0474L41.8928 33.7765L43.0165 36.0238L36.2874 41.6292L28.4346 43.8766L25.0765 31.542L38.5347 30.4184ZM8.24734 33.7765L7.12367 36.0238L13.8528 41.6292L21.7055 43.8766L25.0765 31.542L11.6183 30.4184L6 27.0474" fill="#CCD6DD"/>
<path d="M31.8057 38.2581C31.8057 41.9778 28.7963 44.9872 25.0766 44.9872C21.3569 44.9872 18.3475 41.9778 18.3475 38.2581C18.3475 34.5383 21.3569 31.529 25.0766 31.529C28.7963 31.529 31.8057 34.5383 31.8057 38.2581ZM17.2238 12.4654C17.2238 16.7921 13.827 20.3181 9.62939 20.3181C6.12923 20.3181 7.58871 9.37851 8.16992 5.76211C8.26033 5.16798 8.8932 4.83217 9.43566 5.09049C11.7992 6.18832 17.2238 9.08145 17.2238 12.4783" fill="#75787E"/>
<path d="M40.5236 20.3179C36.326 20.3179 32.9292 16.8048 32.9292 12.4651C32.9292 9.06826 38.3538 6.17514 40.7174 5.0773C41.2598 4.81899 41.8927 5.1548 41.9831 5.74892C42.5643 9.36532 44.0238 20.3179 40.5236 20.3179Z" fill="#75787E"/>
<path d="M39.6584 18.0707C37.1786 18.0707 35.1767 16.0558 35.1767 13.576C35.1767 11.0962 39.6584 9.09424 39.6584 9.09424C39.6584 9.09424 42.1382 18.0707 39.6584 18.0707ZM14.9765 13.5889C14.9765 16.0687 12.9616 18.0836 10.4947 18.0836C8.0149 18.0836 10.4947 9.10715 10.4947 9.10715C10.4947 9.10715 14.9765 11.122 14.9765 13.5889Z" fill="#E9E9E9"/>
<path d="M43.0296 29.2946C43.0296 37.1473 35.2673 37.1473 35.2673 37.1473H14.8992C14.8992 37.1473 7.13681 37.1473 7.13681 29.2946C7.12389 29.2946 8.50587 7.9707 25.0767 7.9707C41.6476 7.9707 43.0296 29.2817 43.0296 29.2817" fill="#75787E"/>
<path d="M20.9563 24.3863L15.1829 22.591C14.6147 22.4231 14.1368 23.0302 14.4467 23.5339C15.9837 26.0912 19.4193 30.7021 21.3825 25.2C21.4987 24.8642 21.305 24.4896 20.9692 24.3863H20.9563Z" fill="#D54344"/>
<path d="M18.9802 28.5583C17.3787 28.5583 15.635 27.0085 13.7881 23.9345C13.4781 23.4308 13.5168 22.7979 13.8785 22.333C14.2401 21.868 14.8472 21.6743 15.4155 21.8551L21.1888 23.6504C21.5633 23.7666 21.8733 24.0249 22.0412 24.3737C22.2091 24.7224 22.235 25.1098 22.1058 25.4586C21.4213 27.383 20.4397 28.4163 19.2127 28.5454C19.1352 28.5454 19.0577 28.5454 18.9673 28.5454L18.9802 28.5583ZM15.2992 23.4437C16.7329 25.7427 18.1665 27.086 19.0706 27.0085C19.6131 26.9568 20.1555 26.2723 20.6076 25.084L15.3121 23.4437H15.2992Z" fill="#272B2B"/>
<path d="M29.1837 24.3863L34.9571 22.591C35.5254 22.4231 36.0032 23.0302 35.6933 23.5339C34.1563 26.0912 30.7207 30.7021 28.7575 25.2C28.6413 24.8642 28.835 24.4896 29.1708 24.3863H29.1837Z" fill="#D54344"/>
<path d="M31.1728 28.5585C31.0953 28.5585 31.0049 28.5585 30.9274 28.5585C29.7004 28.4294 28.7189 27.3961 28.0343 25.4717C27.9052 25.11 27.931 24.7225 28.0989 24.3867C28.2668 24.0509 28.5768 23.7797 28.9513 23.6635L34.7247 21.8682C35.293 21.6873 35.9 21.8682 36.2616 22.3461C36.6233 22.811 36.662 23.4439 36.352 23.9476C34.4922 27.0215 32.7486 28.5714 31.1599 28.5714L31.1728 28.5585ZM29.5067 25.0971C29.9588 26.2337 30.5271 26.944 31.0824 27.0086C31.9736 27.0732 33.4202 25.7429 34.8538 23.4439L29.5067 25.0971Z" fill="#272B2B"/>
<path d="M22.4029 23.0434C22.2221 23.0434 22.0542 22.9788 21.8992 22.8626L19.6002 20.9123C19.2773 20.6411 19.2386 20.1503 19.5098 19.8145C19.781 19.4787 20.2718 19.4528 20.6076 19.7241L22.9066 21.6743C23.2295 21.9456 23.2683 22.4364 22.9971 22.7722C22.8421 22.953 22.6225 23.0434 22.4029 23.0434Z" fill="#272B2B"/>
<path d="M27.7499 23.0435C27.5304 23.0435 27.3108 22.9531 27.1558 22.7723C26.8846 22.4494 26.9233 21.9586 27.2462 21.6744L29.5452 19.7242C29.8681 19.4529 30.3589 19.4917 30.6431 19.8146C30.9272 20.1375 30.8755 20.6283 30.5526 20.9124L28.2536 22.8627C28.1116 22.9918 27.9307 23.0435 27.7499 23.0435Z" fill="#272B2B"/>
<path d="M28.0213 40.1956C28.0213 41.8746 21.938 41.8746 21.938 40.1956C21.938 38.5165 23.2941 37.1475 24.9861 37.1475C26.6781 37.1475 28.0342 38.5036 28.0342 40.1956H28.0213Z" fill="#D54344"/>
<path d="M24.973 42.2229C24.0818 42.2229 23.2552 42.0937 22.6094 41.8613C21.3436 41.3963 21.1499 40.6084 21.1499 40.1951C21.1499 38.0899 22.8677 36.3721 24.973 36.3721C27.0782 36.3721 28.796 38.0899 28.796 40.1951C28.796 41.6933 26.8199 42.2358 24.973 42.2358V42.2229ZM24.973 37.922C23.7201 37.922 22.6998 38.9423 22.6998 40.1951C22.7902 40.3243 23.591 40.6859 24.973 40.6859C26.3549 40.6859 27.1041 40.3501 27.2461 40.1693C27.2332 38.9294 26.2258 37.9349 24.973 37.9349V37.922Z" fill="#272B2B"/>
<path d="M41.5829 31.7096L40.0201 31.1542C39.5809 31.0379 39.0901 30.9475 38.5477 30.8571L35.7191 30.5471C34.2984 30.4567 32.8777 30.4051 31.4569 30.418C27.5564 30.418 30.3333 35.4034 24.9991 35.9717C19.652 35.4164 22.4418 30.418 18.5283 30.418C16.9784 30.418 15.6352 30.4696 14.4469 30.5471L11.6313 30.8313C11.1147 30.9088 10.611 31.0121 10.1202 31.1283L8.55735 31.645C6.65874 32.5103 6.86539 33.7373 8.07947 34.8997C14.8086 41.4351 18.1667 41.6288 18.5412 41.6288C21.2923 41.6288 23.7075 40.5052 25.012 38.839C26.3165 40.5052 28.7188 41.6288 31.4698 41.6288C31.8315 41.6288 35.2025 41.4222 41.9316 34.8997C43.1069 33.7632 43.3265 32.5878 41.6087 31.7096" fill="#CCD6DD"/>
<path d="M21.7056 32.6524C20.5819 33.7761 21.7056 37.1471 25.0766 37.1471C28.4476 37.1471 29.5583 33.7761 28.4346 32.6524C27.311 31.5416 22.8292 31.5416 21.7056 32.6524Z" fill="#272B2B"/>
</g>
<defs>
<clipPath id="clip0_7223_5631">
<rect width="38.1401" height="40" fill="white" transform="translate(6 5)"/>
</clipPath>
</defs>
</svg>
