<svg width="30" height="30" viewBox="0 0 30 30" fill="none" xmlns="http://www.w3.org/2000/svg">
<g clip-path="url(#clip0_488_96410)">
<path d="M7.90385 16.4852C7.90385 14.8104 7.90272 13.135 7.90442 11.4602C7.90442 10.926 8.18772 10.5604 8.6578 10.4752C9.18181 10.3804 9.6746 10.7596 9.71718 11.2933C9.72399 11.3779 9.72059 11.4636 9.72059 11.5488C9.72059 14.8206 9.72059 18.093 9.72059 21.3648C9.72059 22.4265 10.4666 23.1787 11.5203 23.1793C13.9496 23.1799 16.3795 23.1799 18.8088 23.1793C19.8506 23.1793 20.6017 22.4242 20.6017 21.3796C20.6017 18.0652 20.6017 14.7502 20.6017 11.4358C20.6017 10.96 20.8623 10.5956 21.2716 10.49C21.7939 10.3548 22.3049 10.6819 22.3963 11.2144C22.4139 11.3183 22.4173 11.4261 22.4179 11.5317C22.419 14.811 22.4196 18.0902 22.4184 21.3694C22.4184 23.1748 21.2234 24.6191 19.4566 24.9449C19.242 24.9847 19.02 24.9983 18.8014 24.9983C16.3721 25.0017 13.9422 25.0017 11.5129 25C9.4759 24.9983 7.90499 23.424 7.90328 21.3836C7.90158 19.7513 7.90328 18.1185 7.90328 16.4863L7.90385 16.4852Z" fill="black"/>
<path d="M11.538 7.72807C11.538 7.14445 11.5358 6.59261 11.5398 6.04021C11.5403 5.91361 11.5426 5.78189 11.5755 5.66154C11.6828 5.26412 12.0252 5.00581 12.4634 5.0041C14.262 4.99899 16.0606 4.99729 17.8592 5.00467C18.4155 5.00694 18.7783 5.3913 18.784 5.95448C18.7885 6.45806 18.7851 6.96221 18.7851 7.46578C18.7851 7.54243 18.7851 7.61964 18.7851 7.72751C18.8862 7.72751 18.9679 7.72751 19.0497 7.72751C20.1403 7.72751 21.2309 7.72864 22.3209 7.72694C22.6094 7.72694 22.8711 7.79563 23.0698 8.01478C23.3258 8.29694 23.3962 8.62452 23.2509 8.98105C23.1095 9.32794 22.8381 9.51018 22.4686 9.54651C22.4192 9.55162 22.3698 9.54878 22.3198 9.54878C17.5469 9.54878 12.7746 9.54878 8.00166 9.54878C7.44017 9.54878 7.04163 9.21439 7.00245 8.71536C6.95874 8.15955 7.37829 7.73091 7.97895 7.72921C9.06956 7.7258 10.1602 7.72807 11.2502 7.72807C11.3342 7.72807 11.4188 7.72807 11.5369 7.72807H11.538ZM13.3548 7.71388H16.965V6.83901H13.3548V7.71388Z" fill="black"/>
<path d="M12.4417 16.366C12.4417 15.302 12.4383 14.2376 12.444 13.1736C12.4462 12.7285 12.7545 12.3731 13.1871 12.288C13.5794 12.2108 14.0029 12.4231 14.1647 12.8001C14.2221 12.9329 14.2544 13.0873 14.2544 13.2321C14.2601 15.3179 14.2607 17.4032 14.2567 19.4891C14.2556 20.0534 13.8627 20.4559 13.3398 20.4519C12.8181 20.448 12.4428 20.0409 12.4417 19.4732C12.44 18.4376 12.4417 17.4015 12.4417 16.366Z" fill="black"/>
<path d="M17.8817 16.362C17.8817 17.4191 17.8839 18.4762 17.8805 19.5328C17.8788 19.9643 17.6177 20.3026 17.2169 20.4162C16.828 20.5263 16.4044 20.3736 16.2108 20.0176C16.1263 19.8626 16.0718 19.6696 16.0712 19.4936C16.0615 17.4078 16.0627 15.3225 16.0666 13.2367C16.0678 12.6735 16.4606 12.2709 16.9841 12.2755C17.5058 12.28 17.8805 12.6865 17.8817 13.2548C17.8834 14.2904 17.8817 15.3265 17.8817 16.362Z" fill="black"/>
</g>
<defs>
<clipPath id="clip0_488_96410">
<rect width="16.3262" height="20" fill="white" transform="translate(7 5)"/>
</clipPath>
</defs>
</svg>
