<svg width="30" height="30" viewBox="0 0 30 30" fill="none" xmlns="http://www.w3.org/2000/svg">
<g clip-path="url(#clip0_803_24143)">
<path d="M11.0726 15.5841L14.8871 19.1726C15.0484 19.3275 15.2614 19.4115 15.4938 19.4115C15.7261 19.4115 15.9391 19.3275 16.1005 19.1726L19.9084 15.5906C19.9923 15.5131 20.0633 15.4227 20.115 15.3195C20.1666 15.2162 20.1924 15.1065 20.1924 14.9968C20.1924 14.8806 20.1731 14.7709 20.1279 14.6676C20.0827 14.5643 20.0182 14.474 19.9343 14.3965C19.8504 14.3191 19.7535 14.261 19.6503 14.2158C19.547 14.1771 19.4502 14.1577 19.3147 14.1577C19.2049 14.1577 19.0888 14.1835 18.9855 14.2287C18.8822 14.2739 18.7854 14.3384 18.7144 14.4094L16.3651 16.6168V7.81323C16.3651 7.59378 16.2683 7.38079 16.1069 7.22589C15.7842 6.92255 15.2227 6.92255 14.9 7.22589C14.7386 7.38079 14.6418 7.59378 14.6418 7.81323V16.6168L12.2989 14.4094C12.2215 14.332 12.1247 14.2674 12.0214 14.2223C11.9181 14.1771 11.8084 14.1577 11.6922 14.1513C11.5825 14.1513 11.4663 14.1706 11.3566 14.2094C11.2469 14.2481 11.1565 14.3126 11.0726 14.3901C10.9887 14.4675 10.9242 14.5579 10.879 14.6676C10.8338 14.7709 10.8145 14.8806 10.8145 14.9968C10.8145 15.1065 10.8403 15.2162 10.8919 15.3195C10.9371 15.4227 11.0081 15.5131 11.0855 15.5841H11.0726Z" fill="#0D0D0E"/>
<path d="M23.7229 17.998C23.4002 17.6946 22.8386 17.6946 22.5159 17.998C22.3546 18.1529 22.2578 18.3659 22.2578 18.5853V20.3796C22.2578 20.6378 22.148 20.8766 21.9544 21.0637C21.7608 21.2445 21.4897 21.3542 21.2122 21.3542H9.76886C9.49133 21.3542 9.22025 21.2509 9.02662 21.0637C8.833 20.883 8.72328 20.6378 8.72328 20.3796V18.5853C8.72328 18.3659 8.62646 18.1529 8.46511 17.998C8.1424 17.6946 7.58088 17.6946 7.25817 17.998C7.09681 18.1529 7 18.3659 7 18.5853V20.3796C7 21.0831 7.29044 21.7414 7.81323 22.2384C8.33602 22.7289 9.02662 23 9.76886 23H21.2122C21.948 23 22.645 22.7289 23.1678 22.2384C23.6906 21.7414 23.981 21.0831 23.981 20.3796V18.5853C23.981 18.3659 23.8907 18.1529 23.7229 17.998Z" fill="#0D0D0E"/>
</g>
<defs>
<clipPath id="clip0_803_24143">
<rect width="16.981" height="16" fill="white" transform="translate(7 7)"/>
</clipPath>
</defs>
</svg>
