<svg width="138" height="140" viewBox="0 0 138 140" fill="none" xmlns="http://www.w3.org/2000/svg">
<g clip-path="url(#clip0_1092_81370)">
<path d="M126.524 15.2502L136.837 2.20939C137.162 1.77829 137.217 1.23941 136.999 0.754426C136.782 0.269438 136.348 0 135.805 0H94.6078V35.3503H92.9794C71.6479 35.3503 55.0386 35.3503 44.0744 35.3503C34.467 35.3503 29.1477 35.3503 28.7678 35.3503C12.5927 36.428 -0.0541992 50.6005 -0.0541992 67.6289V117.152C-0.0541992 118.122 0.759981 118.93 1.737 118.93H47.711H49.068V137.359C49.068 138.868 50.2621 140.054 51.7276 140.054H80.0611C81.5266 140.054 82.7208 138.814 82.7208 137.359V118.876H129.129C130.595 118.876 131.734 117.637 131.734 116.182V73.1255C131.734 54.9654 120.824 38.0985 100.253 35.5658V30.4465H135.805C136.294 30.4465 136.782 30.1771 136.999 29.6921C137.217 29.2071 137.162 28.6682 136.837 28.2371L126.524 15.1963V15.2502ZM96.6704 76.4665C98.9501 76.251 101.176 77.0593 102.804 78.6759C104.487 80.3464 105.301 82.6097 105.084 84.9269C104.758 88.5912 101.827 91.5011 98.1902 91.8784C98.1902 91.8784 97.7017 91.8784 97.4303 91.8784C95.422 91.8784 93.5222 91.07 92.0567 89.669C90.374 87.9985 89.5599 85.7352 89.777 83.3641C90.1569 79.6998 93.0337 76.7898 96.6704 76.4126V76.4665ZM5.8079 113.002V66.4434C5.8079 66.0662 5.8079 65.689 5.86217 65.3118V64.8807C7.21914 52.4326 17.0979 42.5173 29.4191 41.1701C31.156 41.0624 32.7301 41.1162 34.2499 41.2779C46.6797 42.8945 56.0699 54.0493 56.0699 67.2517V112.948H5.8079V113.002ZM77.0758 134.288H54.713V118.876H56.0699H77.0758V134.342V134.288ZM126.089 73.1255V113.11H61.8235V66.4973C61.8235 57.067 57.644 48.2833 50.3707 42.3018L48.9052 41.1162H94.6078V72.9099L94.1193 73.0716C88.9628 74.6343 85.5975 79.4842 85.8689 84.873C86.1946 90.8006 91.0254 95.6505 96.9418 95.9199C100.198 96.0277 103.075 94.8961 105.355 92.7406C107.689 90.4773 108.992 87.4596 108.992 84.2263C108.992 79.0531 105.681 74.5804 100.741 73.0716L100.253 72.9099V41.4935C116.319 43.0023 126.089 58.3603 126.089 73.1794V73.1255ZM125.438 24.7344H100.253V5.71209H126.849L119.305 15.1963L126.849 24.6805H125.438V24.7344Z" fill="#DDE0E7"/>
<path d="M41.4145 74.2031H20.4087C18.8346 74.2031 17.5862 75.4964 17.5862 77.0592C17.5862 78.6219 18.8346 79.9152 20.4087 79.9152H41.4145C42.9886 79.9152 44.237 78.6219 44.237 77.0592C44.237 75.4964 42.9886 74.2031 41.4145 74.2031Z" fill="#DDE0E7"/>
</g>
<defs>
<clipPath id="clip0_1092_81370">
<rect width="137.162" height="140" fill="white"/>
</clipPath>
</defs>
</svg>
