<svg width="30" height="30" viewBox="0 0 30 30" fill="none" xmlns="http://www.w3.org/2000/svg">
<path fill-rule="evenodd" clip-rule="evenodd" d="M5 8.90863C5 6.74995 6.74995 5 8.90863 5H21.0914C23.25 5 25 6.74995 25 8.90863V21.0914C25 23.25 23.25 25 21.0914 25H8.90863C6.74995 25 5 23.25 5 21.0914V8.90863ZM8.90863 6.72589C7.70314 6.72589 6.72589 7.70314 6.72589 8.90863V21.0914C6.72589 22.2969 7.70314 23.2741 8.90863 23.2741H21.0914C22.2969 23.2741 23.2741 22.2969 23.2741 21.0914V8.90863C23.2741 7.70314 22.2969 6.72589 21.0914 6.72589H8.90863Z" fill="#0D0D0E"/>
</svg>
