<svg width="30" height="30" viewBox="0 0 30 30" fill="none" xmlns="http://www.w3.org/2000/svg">
<path d="M23.3411 6.65888C22.9192 6.237 22.3469 6 21.7503 6C21.1536 6 20.5813 6.237 20.1594 6.65888L19.1677 7.6506L22.3494 10.8323L23.3411 9.8406C23.763 9.41865 24 8.84641 24 8.24974C24 7.65307 23.763 7.08083 23.3411 6.65888ZM21.44 11.7417L18.2583 8.56003L7.84394 18.9743C7.31495 19.5031 6.92609 20.1553 6.71251 20.8721L6.02679 23.1735C5.99368 23.2846 5.99121 23.4025 6.01964 23.5148C6.04807 23.6272 6.10634 23.7298 6.18829 23.8117C6.27023 23.8937 6.37281 23.9519 6.48516 23.9804C6.5975 24.0088 6.71545 24.0063 6.82651 23.9732L9.12794 23.2875C9.84471 23.0739 10.4969 22.685 11.0257 22.1561L21.44 11.7417Z" fill="#0D0D0E"/>
</svg>
