<svg width="30" height="30" viewBox="0 0 30 30" fill="none" xmlns="http://www.w3.org/2000/svg">
<g clip-path="url(#clip0_367_77300)">
<path d="M24.1988 11.5311C24.1988 9.10591 21.8289 7.12279 18.8634 7.01228V7H10.3292V7.01228C7.36378 7.12279 5 9.10591 5 11.5311C5 12.5257 5.39908 13.4344 6.0683 14.1834V20.8634C6.0683 22.0422 7.02609 22.9939 8.19877 22.9939H21C22.1788 22.9939 23.1305 22.0361 23.1305 20.8634V14.1834C23.7997 13.4344 24.1988 12.5196 24.1988 11.5311Z" fill="#E9B17E"/>
<path d="M23.1305 14.1896H15.1305V14.9877H23.1305V14.1896Z" fill="#D08D50"/>
<path d="M16.1988 11.5311C16.1988 9.68303 14.3139 8.17881 11.9317 8.0683C11.8457 8.0683 10.6915 8.0683 10.5994 8.0683C8.09439 8.0683 6.0683 9.6155 6.0683 11.5311C6.0683 12.3784 6.47352 13.1581 7.1366 13.7598V20.3292C7.1366 21.2133 7.85494 21.9317 8.73906 21.9317H13.5403C14.4244 21.9317 15.1366 21.2133 15.1366 20.3292V13.7598C15.7997 13.1581 16.2049 12.3845 16.2049 11.5311" fill="#FFEAB5"/>
</g>
<defs>
<clipPath id="clip0_367_77300">
<rect width="19.1988" height="16" fill="white" transform="translate(5 7)"/>
</clipPath>
</defs>
</svg>
