<svg width="50" height="50" viewBox="0 0 50 50" fill="none" xmlns="http://www.w3.org/2000/svg">
<path d="M45 26.296C45 23.8713 44.5665 21.5415 43.7809 19.3877C43.2391 25.7271 39.8527 28.978 36.3308 27.4744C33.0257 26.0521 35.2472 20.512 35.4233 17.8706C35.6942 13.3871 35.4098 8.26685 27.2689 4C30.6553 10.4748 27.6617 14.4843 24.5191 14.7281C21.0379 14.999 17.8547 11.7345 19.0332 6.4382C15.2269 9.24213 15.1185 13.9695 16.2834 17.0308C17.5161 20.214 16.2293 22.8689 13.2492 23.1534C9.90349 23.4785 8.06129 19.5774 9.76803 13.3464C6.67965 16.9766 5 21.555 5 26.296C5 37.3491 13.9536 46.3027 25.0068 46.3027C36.0599 46.3027 45 37.3491 45 26.3095" fill="#FE693A"/>
<mask id="mask0_7223_10813" style="mask-type:luminance" maskUnits="userSpaceOnUse" x="5" y="4" width="40" height="43">
<path d="M24.5056 14.7282C21.0244 14.9991 17.8412 11.7346 19.0196 6.43832C15.2133 9.24225 15.105 13.9696 16.2699 17.0309C17.5025 20.2277 16.2157 22.8691 13.2357 23.1535C9.88994 23.4922 8.04775 19.5775 9.75449 13.3466C6.67965 16.9768 5 21.5552 5 26.2961C5 37.3493 13.9536 46.3029 25.0068 46.3029C36.0599 46.3029 45 37.3493 45 26.3096C45 23.885 44.5665 21.5552 43.7809 19.415C43.2391 25.7407 39.8527 29.0052 36.3308 27.4881C33.0257 26.0658 35.2472 20.5257 35.4233 17.8843C35.6942 13.4007 35.4098 8.28052 27.2689 4.01367C30.6553 10.4884 27.6617 14.4979 24.5191 14.7417" fill="white"/>
</mask>
<g mask="url(#mask0_7223_10813)">
<path d="M39.1212 39.2456C39.1212 36.6719 38.4304 34.2608 37.2249 32.1884C37.401 35.8186 34.2178 37.2408 32.4975 36.55C30.0186 35.5612 30.6824 33.8545 30.0457 30.3326C29.4091 26.7972 26.9573 24.3455 23.3271 23.2754C25.9685 30.7254 21.8642 33.4752 19.6969 33.9628C17.5026 34.464 15.2811 33.9628 15.0237 29.2354C12.3552 31.8768 10.8652 35.4799 10.8652 39.2456C10.8652 47.0343 17.1775 53.36 24.9797 53.36C32.7819 53.36 39.0942 47.0343 39.0942 39.2456" fill="#FEA43A"/>
</g>
<path d="M37.9429 18.3584C37.6855 18.3584 31.5359 18.399 27.7025 22.2324C27.2419 22.693 27.2419 23.438 27.7025 23.8985C27.9192 24.1288 28.2172 24.2507 28.5288 24.2507C28.5423 24.2507 28.5558 24.2507 28.5694 24.2507C28.5558 24.4403 28.5288 24.6435 28.5288 24.8467C28.5288 27.1224 29.8427 28.9646 31.4681 28.9646C33.0936 28.9646 34.4075 27.1224 34.4075 24.8467C34.4075 23.5193 33.947 22.3408 33.2561 21.5958C35.6808 20.756 37.9023 20.7153 37.9429 20.7153C38.5931 20.7153 39.1078 20.187 39.1078 19.5504C39.1078 18.9138 38.5795 18.3719 37.9294 18.3719M22.2978 22.246C18.4644 18.4126 12.3147 18.3719 12.0574 18.3719C11.4072 18.3719 10.8789 18.8867 10.8789 19.5504C10.8789 20.2006 11.4072 20.7153 12.0574 20.7153C12.0574 20.7153 14.3195 20.7424 16.7441 21.5958C16.0533 22.3408 15.5928 23.5193 15.5928 24.8467C15.5928 27.1224 16.9067 28.9646 18.5321 28.9646C20.1576 28.9646 21.4715 27.1224 21.4715 24.8467C21.4715 24.6435 21.458 24.4403 21.4309 24.2507C21.4444 24.2507 21.458 24.2507 21.4715 24.2507C22.1217 24.2507 22.65 23.7224 22.65 23.0722C22.65 22.7607 22.5281 22.4627 22.3113 22.2324M33.8115 37.0377C33.7573 36.821 32.4434 31.8769 25.0069 31.8769C17.5704 31.8769 16.2565 36.821 16.2023 37.0377C16.121 37.3493 16.3107 37.6743 16.6222 37.7556C16.8119 37.8098 17.0286 37.7556 17.1776 37.6066C17.1911 37.5795 19.4803 35.4258 24.9934 35.4258C30.5064 35.4258 32.7956 37.5795 32.8091 37.6066C32.9988 37.7827 33.2832 37.8233 33.5135 37.7014C33.7438 37.566 33.8522 37.2951 33.798 37.0513" fill="#504122"/>
</svg>
