<svg width="30" height="30" viewBox="0 0 30 30" fill="none" xmlns="http://www.w3.org/2000/svg">
<g clip-path="url(#clip0_803_23869)">
<path d="M15.5855 28C15.2847 27.8765 14.9544 27.7978 14.6895 27.6204C14.1448 27.2557 13.911 26.6998 13.9036 26.0494C13.8978 25.5083 13.911 24.9672 13.8952 24.4272C13.892 24.32 13.8246 24.1775 13.7398 24.1179C13.5117 23.9574 13.2626 23.8254 13.0145 23.6966C12.5662 23.4643 12.1849 23.1592 11.862 22.7664C11.0245 21.7471 10.168 20.7436 9.32946 19.7253C8.81485 19.1002 8.70213 18.3955 9.05029 17.6601C9.37898 16.9665 9.96049 16.6075 10.7264 16.5859C11.2715 16.5706 11.735 16.787 12.1201 17.1708C12.2786 17.3291 12.4298 17.4949 12.5847 17.657C12.6031 17.6517 12.6215 17.6464 12.64 17.6411C12.64 17.5704 12.64 17.4997 12.64 17.4289C12.64 15.6869 12.6373 13.9448 12.6416 12.2028C12.6437 11.4062 12.9792 10.7991 13.6929 10.4195C14.7959 9.83199 16.2634 10.5811 16.3835 11.8253C16.4482 12.501 16.4151 13.1857 16.4256 13.8667C16.4266 13.9501 16.4256 14.034 16.4256 14.1333C16.4851 14.1275 16.532 14.1296 16.5752 14.1185C17.1625 13.9691 17.7003 14.0763 18.1843 14.4379C18.2755 14.506 18.3355 14.5207 18.4382 14.4479C19.5301 13.6719 20.8765 14.0815 21.3626 15.3316C21.3753 15.3633 21.3916 15.3939 21.3948 15.3997C21.6987 15.3754 21.9926 15.3073 22.276 15.3374C23.2873 15.4456 23.9789 16.1947 23.9895 17.2146C24.0074 18.9075 23.9953 20.6005 23.9931 22.2935C23.9926 22.796 23.764 23.2141 23.4759 23.6021C22.562 24.8305 22.7532 24.358 22.7364 25.9021C22.7306 26.4226 22.6342 26.9036 22.2886 27.3127C21.9868 27.6695 21.6097 27.8897 21.1493 27.9678C21.1161 27.9736 21.0845 27.99 21.0524 28.001H15.5849L15.5855 28ZM13.9025 15.6283C13.9025 16.7944 13.9036 17.96 13.902 19.1261C13.9015 19.5141 13.7156 19.7643 13.3969 19.8261C13.1356 19.8768 12.9355 19.7733 12.7564 19.5933C12.2528 19.0849 11.7482 18.5776 11.2399 18.0735C10.9507 17.7868 10.5857 17.7668 10.3202 18.0128C10.0595 18.2545 10.0558 18.6272 10.316 18.9387C11.1836 19.9786 12.0474 21.0212 12.9244 22.0527C13.0703 22.2243 13.2647 22.3637 13.4569 22.4856C13.764 22.6804 14.0964 22.8351 14.4035 23.0299C14.9223 23.3582 15.1857 23.8291 15.1678 24.4578C15.1525 24.9841 15.1625 25.5115 15.1651 26.0383C15.1672 26.4775 15.4195 26.7336 15.8567 26.7346C17.4964 26.7367 19.1367 26.7367 20.7764 26.7346C21.2152 26.7341 21.4685 26.4791 21.4722 26.042C21.4754 25.663 21.4785 25.2834 21.4717 24.9044C21.4638 24.4763 21.5739 24.0835 21.8162 23.733C22.0437 23.4047 22.2986 23.0943 22.5141 22.7585C22.6194 22.5938 22.7237 22.3901 22.7253 22.2027C22.7416 20.5451 22.7364 18.8875 22.7327 17.2299C22.7316 16.862 22.4677 16.5906 22.1238 16.579C21.7809 16.5679 21.508 16.8239 21.4738 17.1892C21.4359 17.5936 21.1757 17.8528 20.8196 17.8396C20.4604 17.8264 20.2138 17.5477 20.2112 17.1449C20.2086 16.7585 20.2138 16.3721 20.2096 15.9862C20.2054 15.5934 19.9394 15.3136 19.5786 15.3142C19.2178 15.3147 18.9534 15.5945 18.9497 15.9878C18.946 16.3742 18.9507 16.7606 18.9481 17.1465C18.9449 17.5567 18.6847 17.8401 18.3171 17.8396C17.9489 17.8396 17.6903 17.5561 17.6876 17.1449C17.685 16.7585 17.6903 16.3721 17.6861 15.9862C17.6818 15.5934 17.4158 15.3136 17.0556 15.3136C16.6948 15.3136 16.4303 15.5934 16.4266 15.9872C16.423 16.3663 16.4266 16.7458 16.4256 17.1248C16.4235 17.553 16.1691 17.8396 15.7946 17.8391C15.4201 17.8391 15.1656 17.5524 15.1646 17.1238C15.163 16.4212 15.1646 15.7191 15.1646 15.0164C15.1646 14.0683 15.163 13.1202 15.1656 12.1721C15.1667 11.876 15.0508 11.6511 14.7785 11.5297C14.354 11.3407 13.9062 11.6574 13.9041 12.1505C13.8999 13.3092 13.9031 14.4685 13.9025 15.6272V15.6283Z" fill="black"/>
<path d="M18.2713 5.75505L17.7208 3.38745C17.6581 3.11769 17.3895 2.95035 17.1198 3.01264C16.8507 3.07546 16.6832 3.34522 16.7458 3.61497L17.0208 4.79798C15.7066 4.04996 14.188 3.78073 12.6789 4.0394C10.2286 4.45907 8.25914 6.19954 7.52119 8.54128L6.93915 7.47124C6.80694 7.22788 6.50301 7.13813 6.26019 7.27064C6.01737 7.40314 5.92782 7.70773 6.06003 7.95109L7.22095 10.0854C7.28468 10.202 7.39161 10.2891 7.51908 10.3266C7.56543 10.3403 7.61284 10.3472 7.66024 10.3472C7.74294 10.3472 7.82564 10.3266 7.89991 10.286L10.0295 9.12249C10.2723 8.98999 10.3618 8.68539 10.2296 8.44203C10.0974 8.19867 9.79351 8.10893 9.55068 8.24143L8.48089 8.82581C9.11086 6.84938 10.7769 5.38236 12.8475 5.02761C14.1153 4.81065 15.39 5.03237 16.4972 5.65317L15.3079 5.93084C15.0387 5.99366 14.8712 6.26341 14.9339 6.53317C14.9876 6.76491 15.1936 6.92117 15.4206 6.92117C15.458 6.92117 15.4964 6.91695 15.5344 6.90797L17.8967 6.35632C18.0258 6.32623 18.138 6.24599 18.208 6.13302C18.2781 6.02006 18.3007 5.88386 18.2707 5.75452L18.2713 5.75505Z" fill="black"/>
</g>
<defs>
<clipPath id="clip0_803_23869">
<rect width="18" height="25" fill="white" transform="translate(6 3)"/>
</clipPath>
</defs>
</svg>
