<svg width="30" height="30" viewBox="0 0 30 30" fill="none" xmlns="http://www.w3.org/2000/svg">
<path d="M18.3485 7.19671C18.9921 7.49639 19.4093 7.99905 19.6077 8.68343C19.6177 8.71802 19.631 8.75178 19.6473 8.79888C19.7069 8.79888 19.7686 8.79888 19.8303 8.79888C20.6984 8.79888 21.5671 8.7968 22.4352 8.80013C22.8191 8.80138 23.0663 9.13607 22.9416 9.47409C22.8662 9.67832 22.6866 9.79836 22.4415 9.79878C21.5733 9.80045 20.7047 9.79961 19.8365 9.79961C19.7748 9.79961 19.7127 9.79961 19.6444 9.79961C19.491 10.4131 19.1646 10.8991 18.6445 11.2467C18.2527 11.5085 17.8171 11.6339 17.3486 11.631C16.4721 11.6252 15.4281 11.0792 15.0875 9.80003C15.025 9.80003 14.9583 9.80003 14.8916 9.80003C12.4688 9.80003 10.0455 9.79711 7.62269 9.80378C7.31968 9.80461 7.11337 9.70083 7 9.41908V9.169C7.12837 8.87849 7.35719 8.79471 7.66354 8.79555C10.073 8.80263 12.483 8.79972 14.8925 8.79972C14.9592 8.79972 15.0258 8.79972 15.0934 8.79972C15.11 8.74845 15.1242 8.7101 15.1355 8.67093C15.3109 8.06199 15.6702 7.5885 16.2229 7.28758C16.9623 6.82076 18.0476 7.02499 18.349 7.19755L18.3485 7.19671ZM17.3645 7.97613C16.6293 7.97904 16.0424 8.57298 16.0457 9.31071C16.0495 10.0351 16.6438 10.6295 17.3674 10.6315C18.0935 10.6336 18.6982 10.028 18.6966 9.30029C18.6953 8.56756 18.0976 7.97362 17.3641 7.97613H17.3645Z" fill="#0D0D0E" stroke="#0D0D0E" stroke-width="0.3" stroke-linejoin="round"/>
<path d="M7 20.5467C7.1117 20.2629 7.31843 20.1608 7.62186 20.162C10.0551 20.1691 12.4888 20.1654 14.9225 20.1687C15.0492 20.1687 15.1088 20.1408 15.1463 20.0066C15.4172 19.0313 16.3429 18.3381 17.3645 18.3331C18.3856 18.3285 19.3205 19.0288 19.601 20.0086C19.6152 20.0582 19.6294 20.1074 19.646 20.1658C19.7131 20.1658 19.7752 20.1658 19.8369 20.1658C20.7155 20.1658 21.5946 20.1641 22.4732 20.1674C22.7257 20.1683 22.9262 20.3425 22.9683 20.5809C23.0075 20.8031 22.8787 21.0431 22.6636 21.1219C22.5782 21.1532 22.4811 21.1636 22.3894 21.164C21.5366 21.1669 20.6839 21.1657 19.8311 21.1657H19.6535C19.6019 21.3103 19.5623 21.4553 19.5002 21.59C19.1496 22.3469 18.5674 22.8091 17.7438 22.9592C17.4274 23.0196 17.2745 23.0062 16.9619 22.955C16.5117 22.8708 16.1178 22.6732 15.7836 22.3602C15.4368 22.0359 15.2151 21.6375 15.0988 21.1657H14.8937C12.4842 21.1657 10.0747 21.1623 7.66521 21.1698C7.35803 21.1707 7.13171 21.0831 7.00083 20.7964V20.5463L7 20.5467ZM17.3753 21.9888C18.1076 21.9868 18.7028 21.3857 18.697 20.6543C18.6912 19.9311 18.0926 19.3343 17.3724 19.3334C16.643 19.3326 16.0466 19.9311 16.0457 20.6647C16.0449 21.3991 16.6388 21.9909 17.3749 21.9888H17.3753Z" fill="#0D0D0E" stroke="#0D0D0E" stroke-width="0.3" stroke-linejoin="round"/>
<path d="M7 14.8575C7.12129 14.572 7.33719 14.4732 7.64312 14.4778C8.48005 14.4907 9.31739 14.4823 10.1543 14.4823H10.3219C10.6624 13.1786 11.7607 12.6505 12.6109 12.653C13.4637 12.6555 14.5349 13.1786 14.8854 14.4823H15.0671C17.5004 14.4823 19.934 14.4823 22.3673 14.4823C22.4294 14.4823 22.4932 14.479 22.554 14.489C22.8045 14.529 22.9871 14.7603 22.9725 15.0125C22.9579 15.2588 22.7591 15.4614 22.5098 15.4806C22.4532 15.4852 22.3956 15.4827 22.3381 15.4827C19.9153 15.4827 17.492 15.4827 15.0692 15.4827H14.8762C14.7274 16.0845 14.4081 16.5634 13.903 16.9102C13.5104 17.1794 13.0723 17.307 12.5967 17.3099C11.709 17.3153 10.6461 16.7389 10.3227 15.4827H9.37533C8.79806 15.4827 8.2208 15.4718 7.64395 15.4872C7.33677 15.4956 7.12212 15.3918 7 15.1075L7 14.8575ZM12.5859 16.3087C13.3024 16.3221 13.9105 15.7407 13.9267 15.0271C13.9438 14.276 13.3749 13.6754 12.6288 13.6567C11.9019 13.6379 11.288 14.2306 11.2768 14.9608C11.2659 15.6931 11.8507 16.2954 12.5859 16.3087Z" fill="#0D0D0E" stroke="#0D0D0E" stroke-width="0.3" stroke-linejoin="round"/>
</svg>
