<svg width="50" height="50" viewBox="0 0 50 50" fill="none" xmlns="http://www.w3.org/2000/svg">
<g clip-path="url(#clip0_7223_6262)">
<mask id="mask0_7223_6262" style="mask-type:luminance" maskUnits="userSpaceOnUse" x="5" y="5" width="40" height="40">
<path d="M45 5H5V45H45V5Z" fill="white"/>
</mask>
<g mask="url(#mask0_7223_6262)">
<path d="M45 24.9936C45 36.0457 36.0457 45 24.9936 45C13.9415 45 5 36.0457 5 24.9936C5 13.9415 13.9543 5 24.9936 5C36.0329 5 45 13.9543 45 24.9936Z" fill="#FFE074"/>
<path d="M35.368 30.1359C35.1761 29.9568 34.8819 29.944 34.6644 30.1103C34.626 30.1359 30.3152 33.3338 24.9938 33.3338C19.6724 33.3338 15.3744 30.1487 15.336 30.1103C15.1697 29.8545 14.8371 29.7521 14.5685 29.9184C14.3126 30.0847 14.2231 30.4173 14.3766 30.6859C14.415 30.7499 14.4661 30.8011 14.5173 30.8394C14.658 31.0825 18.0862 36.6725 24.9938 36.6725C31.9014 36.6725 35.3296 31.0825 35.4703 30.8394C35.611 30.6092 35.5598 30.3278 35.368 30.1487" fill="#504122"/>
<path d="M24.9938 5.28125C14.6068 5.28125 5.62695 6.98256 5.62695 10.8841C5.62695 14.7856 14.6068 16.7683 24.9938 16.7683C35.3807 16.7683 44.3606 14.7856 44.3606 10.8841C44.3606 6.98256 35.3935 5.28125 24.9938 5.28125ZM24.9938 13.5703C17.1908 13.5703 10.3215 12.5726 10.3215 10.3084C10.3215 8.04428 17.2035 6.4581 24.9938 6.4581C32.784 6.4581 39.666 8.0187 39.666 10.2956C39.666 12.5726 32.7968 13.5576 24.9938 13.5576" fill="#7AC4FF"/>
<path d="M22.7805 26.1063C22.32 26.1063 21.885 25.8121 21.7188 25.3388C21.4885 24.6737 20.5931 22.7677 19.4418 22.7677C18.2906 22.7677 17.344 24.8016 17.1649 25.3388C16.973 25.9145 16.3462 26.2343 15.7706 26.0424C15.1949 25.8505 14.8751 25.2237 15.067 24.6481C15.2077 24.2259 16.5125 20.5547 19.4546 20.5547C22.3967 20.5547 23.7015 24.2259 23.8422 24.6481C24.0341 25.2237 23.7271 25.8505 23.1386 26.0552C23.0235 26.0935 22.9084 26.1191 22.7933 26.1191M33.9094 26.1191C33.4361 26.1191 33.0011 25.8121 32.8476 25.3516C32.6174 24.6864 31.7092 22.7805 30.5707 22.7805C29.4322 22.7805 28.4728 24.8144 28.2937 25.3516C28.1019 25.9272 27.4751 26.247 26.8994 26.0552C26.3238 25.8633 26.004 25.2365 26.1959 24.6609C26.3366 24.2387 27.6414 20.5675 30.5835 20.5675C33.5256 20.5675 34.8304 24.2387 34.9711 24.6609C35.163 25.2365 34.8559 25.8633 34.2803 26.0552C34.1652 26.1063 34.0501 26.1191 33.9221 26.1191" fill="#504122"/>
<path d="M36.6341 8.748C35.905 8.26191 35.1375 7.73745 34.4084 7.35369C31.5174 5.79309 28.2811 5 24.9936 5C21.7445 5 18.6744 5.7803 15.9498 7.16182C14.7346 7.77582 13.8647 8.26191 13.5449 8.76079H36.6341V8.748Z" fill="#FFE074"/>
</g>
</g>
<defs>
<clipPath id="clip0_7223_6262">
<rect width="40" height="40" fill="white" transform="translate(5 5)"/>
</clipPath>
</defs>
</svg>
