<svg width="30" height="30" viewBox="0 0 30 30" fill="none" xmlns="http://www.w3.org/2000/svg">
<path fill-rule="evenodd" clip-rule="evenodd" d="M21.4286 23C22.1106 23 22.7646 22.719 23.2468 22.219C23.7291 21.7189 24 21.0406 24 20.3333V12.3333C24 11.6261 23.7291 10.9478 23.2468 10.4477C22.7646 9.94762 22.1106 9.66667 21.4286 9.66667H16.818C16.6476 9.66651 16.4842 9.59617 16.3637 9.47111L14.5457 7.58667C14.3667 7.40079 14.1541 7.25331 13.9201 7.15265C13.6861 7.05198 13.4353 7.00011 13.182 7H8.57143C7.88944 7 7.23539 7.28095 6.75315 7.78105C6.27092 8.28115 6 8.95942 6 9.66667V20.3333C6 21.0406 6.27092 21.7189 6.75315 22.219C7.23539 22.719 7.88944 23 8.57143 23H21.4286ZM15.6429 13.6667C15.6429 13.4899 15.5751 13.3203 15.4546 13.1953C15.334 13.0702 15.1705 13 15 13C14.8295 13 14.666 13.0702 14.5454 13.1953C14.4249 13.3203 14.3571 13.4899 14.3571 13.6667V15.6667H12.4286C12.2581 15.6667 12.0946 15.7369 11.974 15.8619C11.8534 15.987 11.7857 16.1565 11.7857 16.3333C11.7857 16.5101 11.8534 16.6797 11.974 16.8047C12.0946 16.9298 12.2581 17 12.4286 17H14.3571V19C14.3571 19.1768 14.4249 19.3464 14.5454 19.4714C14.666 19.5964 14.8295 19.6667 15 19.6667C15.1705 19.6667 15.334 19.5964 15.4546 19.4714C15.5751 19.3464 15.6429 19.1768 15.6429 19V17H17.5714C17.7419 17 17.9054 16.9298 18.026 16.8047C18.1466 16.6797 18.2143 16.5101 18.2143 16.3333C18.2143 16.1565 18.1466 15.987 18.026 15.8619C17.9054 15.7369 17.7419 15.6667 17.5714 15.6667H15.6429V13.6667Z" fill="black"/>
</svg>
