<svg width="50" height="50" viewBox="0 0 50 50" fill="none" xmlns="http://www.w3.org/2000/svg">
<g clip-path="url(#clip0_7223_6308)">
<path d="M45 24.9936C45 36.0457 36.0429 45 25 45C13.9571 45 5 36.0457 5 24.9936C5 13.9415 13.9571 5 25 5C36.0429 5 45 13.9543 45 24.9936Z" fill="#FFE074"/>
<path d="M25 37.1841C20.9693 37.1841 18.3077 37.6574 14.9936 38.297C14.2386 38.4377 12.7671 38.297 12.7671 36.0712C12.7671 31.6324 17.8727 26.068 24.9872 26.068C32.1017 26.068 37.2073 31.6324 37.2073 36.0712C37.2073 38.297 35.7357 38.4377 34.9808 38.297C31.6794 37.6574 29.0051 37.1841 24.9744 37.1841M33.8675 16.116C33.778 16.116 33.6884 16.116 33.5988 16.0776C33.3941 16.0264 28.634 14.7856 26.2028 9.93752C25.9341 9.38747 26.1516 8.72229 26.7018 8.45367C27.2521 8.17225 27.9174 8.4025 28.1862 8.95255C30.1439 12.854 34.0979 13.9158 34.1363 13.9158C34.7377 14.0821 35.0831 14.6833 34.9296 15.2717C34.8016 15.7578 34.3666 16.1032 33.8675 16.1032M16.0812 16.1032C15.467 16.1032 14.968 15.5915 14.968 14.9903C14.968 14.4786 15.3263 14.0437 15.8125 13.9158C15.8509 13.9158 19.8048 12.854 21.7626 8.95255C22.0441 8.4025 22.6967 8.17225 23.2469 8.44087C23.7972 8.72229 24.0275 9.37468 23.7588 9.92472C23.7588 9.92472 23.7588 9.92472 23.7588 9.93752C21.3403 14.7856 16.5675 16.0264 16.3755 16.0776C16.286 16.1032 16.1964 16.116 16.094 16.116M35.6974 19.1092C35.5438 18.9046 35.2751 18.8406 35.032 18.9302C35.032 18.9302 34.3282 19.2116 33.0998 19.2116C32.3576 19.2116 31.5899 19.1092 30.7965 18.9174C28.1606 18.2778 27.0601 16.973 27.0473 16.9602C26.8554 16.73 26.4971 16.6916 26.2668 16.8835C26.1004 17.0114 26.0364 17.2033 26.062 17.4079C26.0876 17.5742 26.8042 21.3606 30.0032 22.1537C30.3487 22.2432 30.7069 22.2816 31.0524 22.2816C33.714 22.2816 35.6078 19.8768 35.6846 19.7872C35.8381 19.5825 35.8381 19.3139 35.6846 19.1092M23.4901 16.7172C23.2597 16.6148 22.991 16.6916 22.8375 16.8835C22.8247 16.8963 21.7498 18.2138 19.1267 18.943C18.3205 19.1732 17.476 19.2883 16.6315 19.3011C15.531 19.3011 14.904 19.0709 14.904 19.0581C14.6097 18.9557 14.2898 19.0837 14.1746 19.3651C14.1107 19.557 14.1363 19.7616 14.2642 19.9151C14.341 20.0175 16.2476 22.3072 18.8451 22.3072C19.229 22.3072 19.6257 22.256 19.9968 22.1537C23.1702 21.2839 23.7844 17.4847 23.81 17.3056C23.8483 17.0626 23.7076 16.8195 23.4773 16.7172" fill="#504122"/>
<path d="M16.1069 32.7708C16.1069 32.7708 19.4467 31.6707 25.0001 31.6707C30.5535 31.6707 33.8932 32.7708 33.8932 32.7708C33.8932 32.7708 31.6668 28.332 25.0001 28.332C18.3334 28.332 16.1069 32.7708 16.1069 32.7708Z" fill="white"/>
</g>
<defs>
<clipPath id="clip0_7223_6308">
<rect width="40" height="40" fill="white" transform="translate(5 5)"/>
</clipPath>
</defs>
</svg>
