<svg width="30" height="30" viewBox="0 0 30 30" fill="none" xmlns="http://www.w3.org/2000/svg">
<g clip-path="url(#clip0_66_7504)">
<path d="M14.1524 6.75238C14.2952 6.60952 14.4857 6.53333 14.6952 6.53333C14.9048 6.53333 15.0952 6.60952 15.2381 6.75238L24.0952 15.6095C24.1619 15.6857 24.2476 15.7429 24.3429 15.7905C24.4381 15.8286 24.5333 15.8571 24.6381 15.8571C24.7429 15.8571 24.8381 15.8381 24.9333 15.8C25.0286 15.7619 25.1143 15.7048 25.1905 15.6286C25.2667 15.5524 25.3238 15.4667 25.3619 15.3714C25.4 15.2762 25.419 15.1714 25.419 15.0762C25.419 14.9714 25.3905 14.8762 25.3524 14.7809C25.3143 14.6857 25.2476 14.6 25.1714 14.5333L16.3143 5.67619C16.1048 5.46666 15.8476 5.29524 15.5714 5.18095C15.2952 5.06666 15 5.00952 14.6952 5.00952C14.3905 5.00952 14.0952 5.06666 13.819 5.18095C13.5429 5.29524 13.2857 5.46666 13.0762 5.67619L4.20952 14.5238C4.07619 14.6667 4 14.8667 4 15.0667C4 15.2667 4.08571 15.4571 4.22857 15.6C4.37143 15.7429 4.5619 15.819 4.7619 15.819C4.9619 15.819 5.15238 15.7429 5.29524 15.6L14.1524 6.75238Z" fill="#0D0D0E"/>
<path d="M14.6857 8.3714L22.9999 16.6857C22.9999 16.6857 23.0571 16.7428 23.0952 16.7714V23.0857C23.0952 24.1428 22.238 25 21.1809 25H17.7428C17.5428 25 17.3428 24.9238 17.1999 24.7714C17.0571 24.619 16.9714 24.4381 16.9714 24.2285V19.6476C16.9714 19.4476 16.8952 19.2476 16.7428 19.1047C16.5904 18.9619 16.4095 18.8857 16.1999 18.8857H13.1428C12.9428 18.8857 12.7428 18.9619 12.5999 19.1047C12.4571 19.2476 12.3714 19.4381 12.3714 19.6476V24.2285C12.3714 24.4285 12.2952 24.6285 12.1428 24.7714C11.9999 24.9143 11.8095 25 11.5999 25H8.16184C7.65708 25 7.17137 24.8 6.80946 24.4381C6.44756 24.0762 6.24756 23.5904 6.24756 23.0857V16.7714C6.24756 16.7714 6.31423 16.7143 6.3428 16.6857L14.6857 8.3714Z" fill="#0D0D0E"/>
</g>
<defs>
<clipPath id="clip0_66_7504">
<rect width="21.4095" height="20" fill="white" transform="translate(4 5)"/>
</clipPath>
</defs>
</svg>
