<svg width="50" height="50" viewBox="0 0 50 50" fill="none" xmlns="http://www.w3.org/2000/svg">
<g clip-path="url(#clip0_7223_6962)">
<path d="M44.9872 24.9936C44.9872 36.0457 36.0329 45 24.9936 45C13.9543 45 5 36.0457 5 24.9936C5 13.9415 13.9543 5 25.0064 5C36.0585 5 45 13.9543 45 24.9936" fill="#FFE074"/>
<path d="M30.0208 13.5194C30.2127 13.481 34.984 12.6752 39.41 16.7813C39.8577 17.1907 39.8961 17.907 39.474 18.3419C39.0646 18.7896 38.3611 18.828 37.9134 18.4059C34.3317 15.08 30.5709 15.6812 30.4174 15.7068C29.8162 15.8092 29.2405 15.4126 29.1382 14.7986C29.0359 14.1974 29.4324 13.6218 30.0336 13.5066M19.5827 11.6518C20.1967 11.6902 20.6572 12.2147 20.6188 12.8287C20.5805 13.4171 20.0816 13.8776 19.4932 13.8776C19.3269 13.8776 15.5277 13.8264 12.4449 17.6128C12.0611 18.0861 11.3576 18.1628 10.8843 17.7663C10.411 17.3825 10.347 16.679 10.7308 16.2057C14.5427 11.5111 19.378 11.6518 19.5827 11.6518ZM37.0307 24.8658C36.8261 25.0193 36.5574 25.0321 36.3528 24.8786C36.34 24.8786 34.9585 23.8808 32.2466 23.8808C29.5347 23.8808 28.1404 24.8786 28.1404 24.8786C27.8974 25.0576 27.5392 25.0193 27.3601 24.7762C27.2322 24.6099 27.2194 24.3925 27.2962 24.2134C27.3729 24.0599 28.9719 20.5549 32.2466 20.5549C35.5213 20.5549 37.1331 24.0599 37.197 24.2134C37.2994 24.4436 37.2354 24.7123 37.0307 24.8786M22.5888 24.8786C22.3841 25.0321 22.1155 25.0448 21.9108 24.8913C21.898 24.8913 20.5165 23.8936 17.8046 23.8936C15.0928 23.8936 13.7113 24.8913 13.6985 24.8913C13.4554 25.0704 13.11 25.0193 12.9182 24.7762C12.7902 24.6227 12.7775 24.4053 12.8542 24.2134C12.9182 24.0599 14.5299 20.5549 17.8046 20.5549C21.0793 20.5549 22.6911 24.0599 22.7551 24.2134C22.8446 24.4436 22.7807 24.7123 22.5888 24.8786ZM30.0208 32.7711H25.0192C18.8024 32.7711 17.2418 31.671 17.2418 31.671C17.2418 31.671 18.6489 35.6621 24.111 36.0714C24.2261 36.097 24.3413 36.1226 24.4564 36.1226H29.458C30.379 36.1226 31.6838 34.8178 31.6838 33.8968C31.6838 32.9758 30.9418 32.7839 30.0208 32.7839" fill="#504122"/>
<path d="M30.5452 33.8838H27.2193C26.6053 33.8838 26.1064 34.3827 26.1064 34.9967V39.4354C26.1064 40.0494 26.6053 40.5483 27.2193 40.5483C27.8333 40.5483 28.3322 40.0494 28.3322 39.4354V43.3241C28.3322 44.2452 29.0869 44.9999 30.0079 44.9999C30.929 44.9999 31.6709 44.2452 31.6709 43.3241V34.9967C31.6709 34.3827 31.172 33.8838 30.558 33.8838" fill="#88C9F9"/>
</g>
<defs>
<clipPath id="clip0_7223_6962">
<rect width="39.9872" height="40" fill="white" transform="translate(5 5)"/>
</clipPath>
</defs>
</svg>
