<svg width="30" height="30" viewBox="0 0 30 30" fill="none" xmlns="http://www.w3.org/2000/svg">
<path fill-rule="evenodd" clip-rule="evenodd" d="M22.6997 7.45739C24.1108 8.52509 25.1719 9.85793 25.688 11.5634C26.3232 13.6558 25.9731 15.6228 24.7785 17.4393C23.7102 19.0588 22.2089 20.1767 20.4477 20.9613C18.6432 21.7675 16.7412 22.1078 14.7671 22.1043C14.5965 22.0901 14.4255 22.0753 14.2544 22.0604C13.9042 22.0299 13.5535 21.9993 13.2044 21.9753C13.1106 21.9717 12.9915 21.9968 12.9121 22.0505C12.4456 22.3677 11.9809 22.6866 11.5163 23.0054C10.8054 23.4932 10.0947 23.9808 9.37883 24.4618C9.10094 24.6481 8.80139 24.8022 8.49462 24.9383C8.15898 25.0852 7.98575 24.967 8.05071 24.6123C8.13733 24.1393 8.27086 23.6736 8.40801 23.2114C8.59802 22.5694 8.80105 21.9326 9.00383 21.2965C9.03984 21.1836 9.07584 21.0707 9.11177 20.9577C9.15146 20.8288 9.13342 20.7678 8.99989 20.6998C7.59959 19.9904 6.38696 19.0516 5.45222 17.7833C4.4453 16.4182 3.9256 14.8991 4.00861 13.2008C4.07718 11.7927 4.5644 10.5243 5.39448 9.38499C6.62515 7.69386 8.29252 6.576 10.2414 5.84509C12.0784 5.15359 13.9839 4.89921 15.94 5.03536C18.4194 5.20733 20.7075 5.94183 22.6997 7.45739ZM7.17578 11.7578V12.5723H8.46484V16H9.45508V12.5723H10.7441V11.7578H7.17578ZM10.5156 16H11.5938L11.8809 15.0918H13.3574L13.6445 16H14.7168L13.2812 11.7578H11.957L10.5156 16ZM13.1172 14.3301H12.1211L12.6016 12.8066H12.6367L13.1172 14.3301ZM15.168 16V11.7578H16.1641V15.1855H17.9453V16H15.168ZM18.4668 11.7578V16H19.4629V14.8398L19.8848 14.3184L20.957 16H22.1523L20.6113 13.6504L22.1289 11.7578H20.9453L19.5215 13.5684H19.4629V11.7578H18.4668Z" fill="#0D0D0E"/>
</svg>
