<svg width="30" height="30" viewBox="0 0 30 30" fill="none" xmlns="http://www.w3.org/2000/svg">
<path fill-rule="evenodd" clip-rule="evenodd" d="M21.244 19.0797C22.2799 17.859 22.8728 16.324 22.9265 14.7239L24.7255 14.7843C24.6582 16.79 23.915 18.7141 22.6164 20.2443C21.3179 21.7745 19.5403 22.8209 17.5723 23.2136C15.6042 23.6064 13.5611 23.3224 11.7747 22.4079C9.98834 21.4933 8.56349 20.0019 7.73145 18.1756C6.89942 16.3493 6.70906 14.2954 7.19126 12.3473C7.67346 10.3992 8.79992 8.67127 10.3878 7.44397C11.9757 6.21667 13.9317 5.56206 15.9385 5.5864L15.9166 7.38627C14.3158 7.36685 12.7553 7.88907 11.4886 8.86815C10.2218 9.84723 9.3232 11.2257 8.93853 12.7798C8.55385 14.3339 8.70571 15.9724 9.36947 17.4293C10.0332 18.8862 11.1699 20.0761 12.595 20.8057C14.0201 21.5352 15.65 21.7618 17.22 21.4484C18.79 21.1351 20.2081 20.3004 21.244 19.0797Z" fill="#0D0D0E"/>
</svg>
