<svg width="30" height="30" viewBox="0 0 30 30" fill="none" xmlns="http://www.w3.org/2000/svg">
<g clip-path="url(#clip0_1398_17946)">
<path d="M23.3996 14.4277L19.3835 10.4116C19.3032 10.3313 19.2229 10.2811 19.1225 10.241C19.0221 10.2008 18.9217 10.1807 18.8112 10.1807C18.7008 10.1807 18.6004 10.2008 18.5 10.241C18.3996 10.2811 18.3092 10.3414 18.2389 10.4116C18.1687 10.4819 18.1084 10.5723 18.0683 10.6727C18.0281 10.7731 18.008 10.8735 18.008 10.9839C18.008 11.0944 18.0281 11.1948 18.0683 11.2952C18.1084 11.3956 18.1687 11.4859 18.2389 11.5562L20.5482 13.8554L20.8895 14.1968H10.7891C10.5783 14.1968 10.3775 14.2771 10.2169 14.4277C10.0562 14.5783 9.98593 14.7791 9.98593 15C9.98593 15.2209 10.0663 15.4116 10.2169 15.5723C10.3675 15.7229 10.5683 15.8032 10.7891 15.8032H20.8996L20.5582 16.1446L18.249 18.4438C18.1687 18.5241 18.1185 18.6044 18.0683 18.7048C18.0281 18.8052 18.008 18.9056 18.008 19.0161C18.008 19.1265 18.0281 19.2269 18.0683 19.3273C18.1084 19.4277 18.1687 19.5181 18.249 19.5884C18.3293 19.6687 18.4096 19.7289 18.51 19.7691C18.6104 19.8092 18.7108 19.8293 18.8213 19.8293C18.9317 19.8293 19.0321 19.8092 19.1325 19.7691C19.2329 19.7289 19.3233 19.6687 19.3936 19.5884L23.4096 15.5723C23.4799 15.502 23.5401 15.4116 23.5703 15.3112C23.6506 15.1104 23.6506 14.8896 23.5703 14.6988C23.5301 14.5984 23.4699 14.508 23.3996 14.4277Z" fill="#0D0D0E"/>
<path d="M17.1446 25H9.20281C7.43574 25 6 23.5643 6 21.7972V8.20281C6 6.43574 7.43574 5 9.20281 5H17.1446C17.5863 5 17.9478 5.36145 17.9478 5.80321C17.9478 6.24498 17.5863 6.60643 17.1446 6.60643H9.20281C8.31928 6.60643 7.60643 7.31928 7.60643 8.20281V21.7972C7.60643 22.6807 8.31928 23.3936 9.20281 23.3936H17.1446C17.5863 23.3936 17.9478 23.755 17.9478 24.1968C17.9478 24.6386 17.5863 25 17.1446 25Z" fill="#0D0D0E"/>
</g>
<defs>
<clipPath id="clip0_1398_17946">
<rect width="17.6305" height="20" fill="white" transform="translate(6 5)"/>
</clipPath>
</defs>
</svg>
