<svg width="30" height="30" viewBox="0 0 30 30" fill="none" xmlns="http://www.w3.org/2000/svg">
<path fill-rule="evenodd" clip-rule="evenodd" d="M6.04999 7.99999C6.04999 7.47532 6.47532 7.04999 6.99999 7.04999H23C23.5247 7.04999 23.95 7.47532 23.95 7.99999C23.95 8.52466 23.5247 8.94999 23 8.94999H6.99999C6.47532 8.94999 6.04999 8.52466 6.04999 7.99999ZM6.04999 14.5C6.04999 13.9753 6.47532 13.55 6.99999 13.55H23C23.5247 13.55 23.95 13.9753 23.95 14.5C23.95 15.0247 23.5247 15.45 23 15.45H6.99999C6.47532 15.45 6.04999 15.0247 6.04999 14.5ZM6.04999 21C6.04999 20.4753 6.47532 20.05 6.99999 20.05H23C23.5247 20.05 23.95 20.4753 23.95 21C23.95 21.5247 23.5247 21.95 23 21.95H6.99999C6.47532 21.95 6.04999 21.5247 6.04999 21Z" fill="#0D0D0E"/>
</svg>
