<svg width="30" height="30" viewBox="0 0 30 30" fill="none" xmlns="http://www.w3.org/2000/svg">
<path d="M21.9411 3C22.3796 3.18726 22.5357 3.5242 22.5087 3.9897C22.4846 4.39415 22.5075 4.80153 22.5028 5.20716C22.4975 5.66737 22.1806 5.99786 21.7538 5.99786C21.327 5.99786 21.0101 5.66679 21.0048 5.20716C21.0001 4.80095 21.0224 4.39415 20.9989 3.9897C20.9713 3.5242 21.1281 3.18726 21.5665 3H21.9416H21.9411Z" fill="#0D0D0E"/>
<path d="M27.004 8.43749C26.8444 8.88186 26.5186 9.05092 26.0595 9.0339C25.6392 9.01863 25.2177 9.04153 24.7974 9.02744C24.2228 9.00807 23.8694 8.52966 24.0514 8.02952C24.1564 7.7413 24.366 7.55346 24.6753 7.54407C25.2277 7.52763 25.7819 7.52763 26.3342 7.54407C26.6911 7.55463 26.8737 7.81057 27.004 8.10936V8.43749Z" fill="#0D0D0E"/>
<path d="M26.2667 4.62484C26.2192 4.71289 26.1569 4.91541 26.0272 5.05277C25.5506 5.55701 25.0563 6.04482 24.5585 6.52851C24.2404 6.83728 23.7795 6.83376 23.4878 6.54084C23.1914 6.24322 23.1878 5.79651 23.5037 5.47072C23.9862 4.97235 24.4799 4.48337 24.9759 3.99791C25.2142 3.76487 25.5013 3.69443 25.8147 3.83179C26.1065 3.95976 26.252 4.19397 26.2673 4.62484H26.2667Z" fill="#0D0D0E"/>
<path d="M19.3823 6.7633C19.289 6.71223 19.0894 6.63944 18.9368 6.51089C18.6873 6.30015 18.4642 6.05654 18.2371 5.81998C17.9195 5.48832 17.9136 5.02751 18.2148 4.73107C18.5147 4.43639 18.9556 4.43933 19.2861 4.75338C19.552 5.00579 19.8132 5.26467 20.0574 5.53763C20.2622 5.76656 20.2945 6.04304 20.1642 6.32422C20.0339 6.60422 19.805 6.74569 19.3817 6.76271L19.3823 6.7633Z" fill="#0D0D0E"/>
<path d="M24.713 12.0458C24.5615 11.9748 24.3842 11.9331 24.2639 11.8269C23.9716 11.5692 23.6951 11.2921 23.4327 11.0033C23.1609 10.7039 23.1856 10.2625 23.4609 9.986C23.7385 9.70776 24.1741 9.68134 24.4776 9.9543C24.7676 10.2149 25.0429 10.4938 25.3041 10.7826C25.5166 11.0174 25.5489 11.3021 25.408 11.5897C25.2724 11.8674 25.0399 12.0036 24.7118 12.0458H24.713Z" fill="#0D0D0E"/>
<path d="M22.2399 8.82371C22.4477 8.61649 22.5516 8.37464 22.4811 8.08173C22.3385 7.48943 21.6435 7.30981 21.1915 7.75535C20.5575 8.37993 19.9335 9.01507 19.2837 9.66665C18.9597 9.33969 18.6632 9.02916 18.3539 8.73155C17.707 8.1099 16.8722 8.08642 16.2095 8.6793C15.9307 8.92878 15.6665 9.19763 15.4194 9.47822C15.3096 9.60267 15.2251 9.61676 15.0819 9.56275C14.2436 9.24694 13.3754 9.07377 12.4808 9.02212C10.7668 8.92291 9.15835 9.2986 7.66441 10.1257C5.93918 11.0808 4.65128 12.4608 3.82888 14.2588C2.97948 16.1179 2.78048 18.0486 3.24305 20.0403C3.63458 21.7244 4.4517 23.1808 5.68207 24.3918C7.06859 25.7566 8.73159 26.5884 10.6593 26.8925C12.0523 27.1126 13.4183 26.9911 14.752 26.562C16.3152 26.0589 17.6477 25.186 18.736 23.9498C20.1507 22.3425 20.8974 20.4618 20.9931 18.3303C21.0453 17.1651 20.8592 16.0275 20.4442 14.9333C20.3873 14.7836 20.3978 14.6926 20.5317 14.5764C20.8134 14.3304 21.0776 14.0622 21.33 13.7857C21.7368 13.3402 21.8777 12.813 21.6493 12.2483C21.5419 11.9836 21.3394 11.7482 21.1463 11.5292C20.8968 11.2463 20.6138 10.9921 20.3245 10.7051C20.3914 10.654 20.433 10.6293 20.4659 10.5965C21.0576 10.0059 21.6476 9.41424 22.2399 8.82429V8.82371ZM11.9807 13.4987C10.6476 13.5356 9.52347 14.0311 8.63297 15.0278C7.94324 15.7997 7.58105 16.7131 7.51061 17.7439C7.50298 17.8531 7.50709 17.9629 7.49535 18.0715C7.45308 18.4671 7.12084 18.7588 6.73047 18.7483C6.3407 18.7377 6.02489 18.4266 6.00376 18.0304C5.99906 17.9447 6.00317 17.859 6.00317 17.7727C6.13525 14.9832 8.08999 12.6815 10.8219 12.1233C11.1871 12.0487 11.5645 12.0241 11.9378 12.0059C12.3951 11.9836 12.7379 12.3029 12.7503 12.7285C12.762 13.1547 12.4403 13.4857 11.9807 13.4987Z" fill="#0D0D0E"/>
</svg>
