<svg width="30" height="30" viewBox="0 0 30 30" fill="none" xmlns="http://www.w3.org/2000/svg">
<g clip-path="url(#clip0_1095_85427)">
<path d="M22.0937 7H7.91646C7.14684 7 6.39747 7.31492 5.86076 7.85333C5.31393 8.4019 5.01013 9.14349 5.01013 9.91556V20.0743C5.01013 20.8463 5.32406 21.5981 5.86076 22.1365C6.4076 22.6851 7.15697 22.9898 7.91646 22.9898H22.0937C22.8734 22.9898 23.6025 22.6851 24.1494 22.1365C24.6962 21.5879 25 20.8565 25 20.0743V9.92571C25 9.14349 24.6962 8.41206 24.1494 7.86349C23.6025 7.31492 22.8633 7.01016 22.0937 7.01016V7ZM21.9823 8.77778L15.8152 14.9644C15.7139 15.0762 15.5823 15.1575 15.4405 15.2184C15.2987 15.2794 15.157 15.3098 15.0051 15.3098C14.8532 15.3098 14.7114 15.2794 14.5696 15.2184C14.4279 15.1575 14.3063 15.0762 14.1949 14.9644L8.01773 8.77778H21.9722H21.9823ZM23.2279 20.0743C23.2279 20.379 23.1063 20.6736 22.8937 20.887C22.681 21.1003 22.3873 21.2222 22.0835 21.2222H7.91646C7.61266 21.2222 7.31899 21.1003 7.10633 20.887C6.89368 20.6736 6.77216 20.379 6.77216 20.0743V10.0273L12.9392 16.214C13.4861 16.7625 14.2152 17.0673 14.9949 17.0673C15.7747 17.0673 16.5038 16.7625 17.0506 16.214L23.2177 10.0273V20.0743H23.2279Z" fill="#0D0D0E"/>
</g>
<defs>
<clipPath id="clip0_1095_85427">
<rect width="20" height="16" fill="white" transform="translate(5 7)"/>
</clipPath>
</defs>
</svg>
