<svg width="30" height="30" viewBox="0 0 30 30" fill="none" xmlns="http://www.w3.org/2000/svg">
<path fill-rule="evenodd" clip-rule="evenodd" d="M8.02914 6.48093C10.1717 6.16006 12.3344 5.99933 14.5 6C16.6986 6 18.8582 6.16431 20.9709 6.48C22.7605 6.74954 24 8.34832 24 10.1446V15.7016C24 17.4979 22.7605 19.0967 20.9709 19.3662C19.927 19.5223 18.878 19.6402 17.8259 19.7198C17.7724 19.7233 17.7203 19.7393 17.6738 19.7665C17.6272 19.7937 17.5873 19.8314 17.5572 19.8767L15.0646 23.6918C15.0026 23.7866 14.9186 23.8643 14.8202 23.9181C14.7217 23.9719 14.6117 24 14.5 24C14.3883 24 14.2783 23.9719 14.1798 23.9181C14.0814 23.8643 13.9974 23.7866 13.9354 23.6918L11.4428 19.8767C11.4127 19.8314 11.3728 19.7937 11.3262 19.7665C11.2797 19.7393 11.2276 19.7233 11.1741 19.7198C10.122 19.6399 9.07298 19.5217 8.02914 19.3653C6.23952 19.0976 5 17.497 5 15.7007V10.1456C5 8.34924 6.23952 6.74862 8.02914 6.48093ZM9.75 11.5385C9.75 11.3549 9.82149 11.1788 9.94875 11.0489C10.076 10.9191 10.2486 10.8462 10.4286 10.8462H18.5714C18.7514 10.8462 18.924 10.9191 19.0513 11.0489C19.1785 11.1788 19.25 11.3549 19.25 11.5385C19.25 11.7221 19.1785 11.8982 19.0513 12.028C18.924 12.1579 18.7514 12.2308 18.5714 12.2308H10.4286C10.2486 12.2308 10.076 12.1579 9.94875 12.028C9.82149 11.8982 9.75 11.7221 9.75 11.5385ZM10.4286 13.6154C10.2486 13.6154 10.076 13.6884 9.94875 13.8182C9.82149 13.948 9.75 14.1241 9.75 14.3077C9.75 14.4913 9.82149 14.6674 9.94875 14.7973C10.076 14.9271 10.2486 15 10.4286 15H14.5C14.68 15 14.8526 14.9271 14.9798 14.7973C15.1071 14.6674 15.1786 14.4913 15.1786 14.3077C15.1786 14.1241 15.1071 13.948 14.9798 13.8182C14.8526 13.6884 14.68 13.6154 14.5 13.6154H10.4286Z" fill="black"/>
</svg>
