<svg width="30" height="30" viewBox="0 0 30 30" fill="none" xmlns="http://www.w3.org/2000/svg">
<g clip-path="url(#clip0_18_904)">
<path d="M15 25C14.4105 25 13.8111 24.8579 13.2904 24.5736C12.7598 24.2995 12.298 23.8832 11.9443 23.3959C11.5906 22.8985 11.3646 22.3198 11.2664 21.7107C11.2271 21.4365 11.2074 21.1624 11.2271 20.8883C9.62553 20.6345 8.06331 20.2081 6.55021 19.6396C6.29475 19.5381 6.09824 19.3147 6.02946 19.0406C5.96069 18.7665 6.02946 18.4721 6.21615 18.2589C7.54256 16.736 8.27946 14.7766 8.26964 12.7259V11.9645C8.26964 10.1066 8.96724 8.36041 10.2347 7.05076C11.512 5.72081 13.202 5 15 5C16.798 5 18.488 5.72081 19.7554 7.04061C21.0229 8.35025 21.7303 10.0964 21.7303 11.9543V12.7157C21.7303 14.7665 22.4574 16.7259 23.7838 18.2487C23.9705 18.4619 24.0393 18.7563 23.9705 19.0305C23.9017 19.3046 23.7052 19.5381 23.4498 19.6294C21.9367 20.2081 20.3646 20.6244 18.7729 20.8883C18.7827 21.1624 18.7729 21.4365 18.7336 21.7107C18.6354 22.3096 18.4094 22.8985 18.0557 23.3858C17.7118 23.8832 17.2402 24.2893 16.7194 24.5635C16.1889 24.8376 15.5993 24.9898 15 24.9898V25ZM12.8875 21.1015C12.8875 21.2132 12.8875 21.3249 12.917 21.4365C12.9661 21.7716 13.1037 22.0964 13.3002 22.3706C13.4967 22.6447 13.7522 22.8782 14.0469 23.0305C14.6365 23.335 15.3734 23.335 15.9629 23.0305C16.2576 22.8782 16.5131 22.6447 16.7096 22.3706C16.9061 22.0964 17.0338 21.7716 17.0928 21.4365C17.1124 21.3249 17.1223 21.2132 17.1223 21.1015C15.7172 21.2233 14.3024 21.2233 12.8974 21.1015H12.8875ZM12.3078 19.3046C14.0961 19.5178 15.9137 19.5178 17.6921 19.3046C17.702 19.3046 17.7118 19.3046 17.7216 19.3046C19.0972 19.132 20.453 18.8376 21.7696 18.4112C20.6496 16.7462 20.0502 14.7665 20.0502 12.7157V12.0051C20.0502 10.5533 19.5196 9.24365 18.5666 8.25888C17.6234 7.28426 16.3166 6.72589 14.9902 6.72589C13.6637 6.72589 12.3668 7.27411 11.4137 8.25888C10.4607 9.24365 9.93012 10.5635 9.93012 11.9543V12.7157C9.93012 14.7665 9.33077 16.7462 8.21069 18.4112C9.52728 18.8376 10.8832 19.132 12.2587 19.3046C12.2587 19.3046 12.2784 19.3046 12.2882 19.3046H12.3078Z" fill="#0D0D0E"/>
</g>
<defs>
<clipPath id="clip0_18_904">
<rect width="18" height="20" fill="white" transform="translate(6 5)"/>
</clipPath>
</defs>
</svg>
