<svg width="30" height="30" viewBox="0 0 30 30" fill="none" xmlns="http://www.w3.org/2000/svg">
<path d="M23.685 6.217C23.5869 6.13282 23.4718 6.07075 23.3476 6.03504C23.2233 5.99932 23.0928 5.99078 22.965 6.01001L11.265 7.80991C11.0519 7.84224 10.8575 7.94994 10.7172 8.11343C10.5768 8.27693 10.4997 8.48537 10.5 8.70086V18.0153C10.0795 17.81 9.61799 17.7023 9.15 17.7004C8.52699 17.7004 7.91797 17.8851 7.39996 18.2312C6.88194 18.5773 6.4782 19.0692 6.23978 19.6448C6.00136 20.2203 5.93898 20.8537 6.06053 21.4647C6.18207 22.0757 6.48208 22.6369 6.92261 23.0774C7.36315 23.5179 7.92443 23.8179 8.53547 23.9395C9.14651 24.061 9.77987 23.9986 10.3555 23.7602C10.931 23.5218 11.423 23.1181 11.7691 22.6001C12.1153 22.0821 12.3 21.4732 12.3 20.8502V13.9746L22.2 12.4536V16.2154C21.7795 16.0101 21.318 15.9024 20.85 15.9005C20.227 15.9005 19.618 16.0852 19.1 16.4313C18.5819 16.7774 18.1782 17.2693 17.9398 17.8449C17.7014 18.4204 17.639 19.0538 17.7605 19.6648C17.8821 20.2758 18.1821 20.837 18.6226 21.2775C19.0631 21.7181 19.6244 22.018 20.2355 22.1396C20.8465 22.2611 21.4799 22.1987 22.0555 21.9603C22.631 21.7219 23.123 21.3182 23.4691 20.8002C23.8153 20.2822 24 19.6733 24 19.0503V6.90096C24 6.77097 23.9719 6.64253 23.9175 6.52446C23.8631 6.40638 23.7838 6.3015 23.685 6.217ZM9.15 22.2001C8.883 22.2001 8.62199 22.1209 8.39998 21.9726C8.17797 21.8243 8.00494 21.6134 7.90276 21.3668C7.80059 21.1201 7.77385 20.8487 7.82594 20.5868C7.87803 20.325 8.00661 20.0844 8.19541 19.8956C8.38421 19.7068 8.62475 19.5783 8.88663 19.5262C9.1485 19.4741 9.41994 19.5008 9.66662 19.603C9.9133 19.7052 10.1241 19.8782 10.2725 20.1002C10.4208 20.3222 10.5 20.5832 10.5 20.8502C10.5 21.2082 10.3578 21.5516 10.1046 21.8047C9.85142 22.0579 9.50804 22.2001 9.15 22.2001ZM20.85 20.4002C20.583 20.4002 20.322 20.321 20.1 20.1727C19.878 20.0244 19.7049 19.8135 19.6028 19.5669C19.5006 19.3202 19.4739 19.0488 19.5259 18.7869C19.578 18.5251 19.7066 18.2845 19.8954 18.0957C20.0842 17.9069 20.3248 17.7784 20.5866 17.7263C20.8485 17.6742 21.1199 17.7009 21.3666 17.8031C21.6133 17.9053 21.8241 18.0783 21.9725 18.3003C22.1208 18.5223 22.2 18.7833 22.2 19.0503C22.2 19.4083 22.0578 19.7517 21.8046 20.0048C21.5514 20.258 21.208 20.4002 20.85 20.4002ZM22.2 10.6268L12.3 12.1477V9.44782L22.2 7.9539V10.6268Z" fill="black"/>
</svg>
