<svg width="30" height="30" viewBox="0 0 30 30" fill="none" xmlns="http://www.w3.org/2000/svg">
<g clip-path="url(#clip0_1061_79564)">
<path d="M24.19 18.08C22.85 16.58 22.11 14.66 22.11 12.65V11.9C22.11 10.06 21.39 8.33 20.09 7.02C18.79 5.71 17.02 5 15.21 5C13.4 5 11.62 5.74 10.33 7.02C9.03998 8.3 8.30998 10.06 8.30998 11.9V12.65C8.30998 14.66 7.56998 16.58 6.22998 18.08C6.02998 18.3 5.94998 18.61 6.02998 18.9C6.09998 19.19 6.30998 19.42 6.58998 19.53C8.09998 20.09 9.68998 20.49 11.33 20.75C11.32 21.01 11.33 21.27 11.37 21.52C11.46 22.12 11.7 22.71 12.08 23.21C12.45 23.71 12.91 24.1 13.46 24.39C14 24.66 14.61 24.81 15.22 24.81C15.83 24.81 16.44 24.67 17 24.39C17.54 24.11 18 23.71 18.37 23.22C18.74 22.72 18.99 22.13 19.07 21.55C19.11 21.29 19.12 21.03 19.11 20.77C20.72 20.52 22.31 20.11 23.85 19.55C24.13 19.45 24.34 19.21 24.41 18.92C24.48 18.63 24.41 18.32 24.21 18.1L24.19 18.08Z" fill="black"/>
</g>
<defs>
<clipPath id="clip0_1061_79564">
<rect width="18.42" height="19.8" fill="white" transform="translate(6 5)"/>
</clipPath>
</defs>
</svg>
