<svg width="50" height="50" viewBox="0 0 50 50" fill="none" xmlns="http://www.w3.org/2000/svg">
<g clip-path="url(#clip0_7223_3522)">
<path d="M45 24.9936C45 36.0457 36.0457 45 24.9936 45C13.9415 45 5 36.0457 5 24.9936C5 13.9415 13.9543 5 24.9936 5C36.0329 5 45 13.9543 45 24.9936Z" fill="#FFE074"/>
<path fill-rule="evenodd" clip-rule="evenodd" d="M6.38136 17.2416C6.64999 17.4974 7.98033 18.3033 8.24896 19.0964C8.51759 19.8895 9.04205 24.4178 10.641 25.7353C12.2912 27.1169 18.508 26.6052 19.6976 26.004C22.3583 24.6736 22.6909 20.9768 23.1642 19.0964C23.4328 18.0347 25.0318 18.0347 25.0318 18.0347C25.0318 18.0347 26.6308 18.0347 26.8994 19.0964C27.3727 20.9768 27.7053 24.6864 30.366 26.004C31.5556 26.6052 37.7725 27.1041 39.4226 25.7481C41.0216 24.4178 41.5461 19.8895 41.8147 19.0964C42.0705 18.3033 43.4137 17.4974 43.6823 17.2416C43.9509 16.9729 43.9509 15.9112 43.6823 15.6426C43.145 15.1053 36.8643 14.632 30.0974 15.374C28.7542 15.5275 28.2298 15.9112 25.0446 15.9112C21.8595 15.9112 21.335 15.5275 19.9918 15.374C13.2378 14.632 6.9442 15.1053 6.41973 15.6426C6.1511 15.9112 6.1511 16.9729 6.41973 17.2416" fill="#31313B"/>
</g>
<g clip-path="url(#clip1_7223_3522)">
<path d="M32.8121 31.1585C32.624 30.9856 32.3822 30.9568 32.1672 31.0721L27.505 33.5793C25.315 34.7464 19.6451 34.7609 19.6048 34.7609C19.2824 34.7609 19.0137 35.0346 19.0137 35.3805C19.0137 35.611 19.1212 35.8127 19.3093 35.928C19.3899 35.9856 19.4839 36.0145 19.5914 36.0145H27.7737C30.8774 36.0145 32.5434 33.2767 32.9868 31.8358C33.0674 31.5908 32.9868 31.3315 32.8256 31.173" fill="#504122"/>
</g>
<defs>
<clipPath id="clip0_7223_3522">
<rect width="40" height="40" fill="white" transform="translate(5 5)"/>
</clipPath>
<clipPath id="clip1_7223_3522">
<rect width="14" height="5" fill="white" transform="translate(19 31)"/>
</clipPath>
</defs>
</svg>
