<svg width="30" height="30" viewBox="0 0 30 30" fill="none" xmlns="http://www.w3.org/2000/svg">
<path fill-rule="evenodd" clip-rule="evenodd" d="M19.2552 7.96443C18.6715 7.76585 18.0529 7.69072 17.4387 7.74379C16.8244 7.79687 16.2279 7.97699 15.6869 8.27275C15.1459 8.56851 14.6722 8.97345 14.2959 9.46192C13.9195 9.95038 13.6487 10.5117 13.5007 11.1104C13.3526 11.709 13.3305 12.3319 13.4357 12.9395C13.5561 13.6385 13.4198 14.477 12.8145 15.0824L7.05698 20.8413C6.84619 21.0517 6.72686 21.3391 6.72686 21.6396V23.2727H8.32176V22.1428C8.32176 21.6659 8.70833 21.2792 9.18519 21.2792H10.3148V20.1493C10.3148 19.6723 10.7014 19.2857 11.1782 19.2857H12.8137L14.9152 17.1836C15.5205 16.5782 16.358 16.4417 17.0569 16.5622L17.0583 16.5624C17.698 16.6738 18.3542 16.6439 18.9811 16.4748C19.6079 16.3056 20.1902 16.0014 20.687 15.5834C21.1839 15.1654 21.5833 14.6437 21.8573 14.055C22.1313 13.4662 22.2732 12.8247 22.2731 12.1753C22.2725 11.5588 22.1439 10.9492 21.8955 10.385C21.647 9.82064 21.284 9.31407 20.8295 8.89739C20.375 8.48071 19.8389 8.16301 19.2552 7.96443ZM17.29 6.02293C18.1426 5.94927 19.0011 6.05355 19.8112 6.32917C20.6214 6.60478 21.3654 7.04572 21.9963 7.62405C22.6271 8.20237 23.1309 8.90546 23.4759 9.68876C23.8208 10.4721 23.9993 11.3185 24 12.1744C24.0001 13.0757 23.8032 13.9668 23.4229 14.7839C23.0426 15.6011 22.4882 16.3251 21.7986 16.9053C21.1089 17.4854 20.3008 17.9077 19.4308 18.1424C18.5611 18.3771 17.6506 18.4187 16.7631 18.2643C16.4648 18.213 16.2467 18.2945 16.1363 18.4049L13.7818 20.76C13.6199 20.9219 13.4003 21.0129 13.1713 21.0129H12.0417V22.1428C12.0417 22.6198 11.6551 23.0065 11.1782 23.0065H10.0486V24.1364C10.0486 24.6133 9.66204 25 9.18519 25H5.86343C5.38657 25 5 24.6133 5 24.1364V21.6396C5 20.8823 5.30036 20.1546 5.8369 19.619C5.83674 19.6191 5.83705 19.6188 5.8369 19.619L11.5935 13.861C11.7039 13.7505 11.7854 13.5321 11.734 13.2335C11.588 12.3901 11.6188 11.5264 11.8244 10.6955C12.0299 9.86464 12.4057 9.08554 12.9281 8.40758C13.4504 7.72962 14.1078 7.16758 14.8587 6.75709C15.6096 6.34659 16.4375 6.09659 17.29 6.02293ZM16.9583 9.5171C16.9583 9.04013 17.3449 8.65347 17.8218 8.65347C18.7555 8.65347 19.6511 9.0245 20.3114 9.68495C20.9716 10.3454 21.3426 11.2411 21.3426 12.1752C21.3426 12.6521 20.956 13.0388 20.4792 13.0388C20.0023 13.0388 19.6157 12.6521 19.6157 12.1752C19.6157 11.6992 19.4267 11.2428 19.0903 10.9063C18.7539 10.5698 18.2976 10.3807 17.8218 10.3807C17.3449 10.3807 16.9583 9.99408 16.9583 9.5171Z" fill="#0D0D0E"/>
</svg>
