<svg width="30" height="30" viewBox="0 0 30 30" fill="none" xmlns="http://www.w3.org/2000/svg">
<g clip-path="url(#clip0_1104_26313)">
<path d="M23.9797 12.7944V8.92056C23.9797 7.30817 22.673 6 21.0523 6H8.90715C8.71469 6 8.52223 6.02028 8.32977 6.06085C8.1677 6.09127 8.01576 6.13183 7.86382 6.20282C7.48903 6.33465 7.14463 6.55775 6.85087 6.85183C6.30388 7.39944 6 8.13972 6 8.91042V21.3025C6 22.0225 6.28362 22.702 6.7901 23.209C7.29657 23.7161 7.96511 24 8.6843 24H21.2853C21.2853 24 21.336 24 21.3562 23.9899C21.5993 23.9899 21.8323 23.9493 22.0653 23.8783C22.6224 23.7262 23.1187 23.3814 23.4631 22.9251C23.8075 22.4687 24 21.8907 24 21.3127V12.9668C24 12.9668 23.9899 12.8552 23.9797 12.7944ZM8.90715 22.2254C8.61339 22.2254 8.31964 22.1037 8.10692 21.8907C7.8942 21.6777 7.77265 21.3837 7.77265 21.0794V17.4085L10.7304 14.4473C11.0748 14.1025 11.6826 14.1025 12.027 14.4473L19.8064 22.2254H8.90715ZM17.1322 17.0231L17.9426 16.222C18.0338 16.1408 18.1249 16.0699 18.2364 16.0293C18.4693 15.9279 18.7226 15.9279 18.9454 16.0293C19.0568 16.0699 19.1581 16.1408 19.2392 16.2321L22.2071 19.2135V21.0896C22.197 21.3127 22.1261 21.5256 21.9944 21.7082L21.9133 21.8299L17.1322 17.0231Z" fill="black"/>
</g>
<defs>
<clipPath id="clip0_1104_26313">
<rect width="18" height="18" fill="white" transform="translate(6 6)"/>
</clipPath>
</defs>
</svg>
