<svg width="30" height="30" viewBox="0 0 30 30" fill="none" xmlns="http://www.w3.org/2000/svg">
<g clip-path="url(#clip0_327_55770)">
<path d="M14.75 23.5C14.05 23.5 13.34 23.41 12.66 23.22C11.29 22.84 10.04 22.1 9.04 21.08L7.5 19.51V22.2C7.5 22.61 7.16 22.95 6.75 22.95C6.34 22.95 6 22.61 6 22.2V17.66C6 17.55 6.02 17.46 6.06 17.37C6.1 17.28 6.15 17.2 6.23 17.12C6.3 17.05 6.38 17 6.47 16.96C6.55 16.93 6.64 16.91 6.74 16.91H11.19C11.6 16.91 11.94 17.25 11.94 17.66C11.94 18.07 11.6 18.41 11.19 18.41H8.54L10.12 20.03C10.94 20.86 11.95 21.47 13.06 21.77C14.17 22.07 15.34 22.07 16.45 21.77C17.56 21.47 18.58 20.86 19.39 20.03C20.21 19.19 20.8 18.15 21.1 17C21.21 16.6 21.62 16.36 22.02 16.46C22.42 16.56 22.66 16.97 22.56 17.38C22.19 18.78 21.47 20.05 20.48 21.08C19.48 22.11 18.23 22.85 16.86 23.22C16.18 23.41 15.47 23.5 14.77 23.5H14.75ZM7.68 14.06C7.62 14.06 7.55 14.06 7.49 14.04C7.09 13.94 6.85 13.53 6.95 13.12C7.31 11.72 8.04 10.45 9.03 9.42C10.03 8.4 11.28 7.65 12.65 7.28C14.02 6.9 15.47 6.9 16.84 7.28C18.21 7.66 19.46 8.4 20.46 9.42L22 10.99V8.3C22 7.89 22.34 7.55 22.75 7.55C23.16 7.55 23.5 7.89 23.5 8.3V12.83C23.5 12.93 23.48 13.03 23.44 13.13C23.32 13.41 23.05 13.59 22.75 13.59H18.32C17.91 13.59 17.57 13.25 17.57 12.84C17.57 12.43 17.91 12.09 18.32 12.09H20.97L19.39 10.47C18.58 9.64 17.56 9.03 16.45 8.73C15.34 8.43 14.17 8.43 13.06 8.73C11.95 9.04 10.93 9.64 10.12 10.47C9.3 11.31 8.71 12.35 8.41 13.5C8.32 13.84 8.02 14.06 7.68 14.06Z" fill="#0D0D0E"/>
</g>
<defs>
<clipPath id="clip0_327_55770">
<rect width="17.5" height="16.5" fill="white" transform="translate(6 7)"/>
</clipPath>
</defs>
</svg>
