<svg width="30" height="30" viewBox="0 0 30 30" fill="none" xmlns="http://www.w3.org/2000/svg">
<path fill-rule="evenodd" clip-rule="evenodd" d="M16.6457 4C17.3533 3.9998 18.0408 4.23149 18.6038 4.65862C19.0182 4.97312 19.3483 5.38074 19.5699 5.84478C20.1239 5.89181 20.6758 5.94702 21.2259 6.01094C22.8456 6.20006 24 7.59404 24 9.17779V23.7564C24 24.6143 23.6604 25.4385 23.0536 26.0474C22.4466 26.6565 21.6217 27 20.76 27H9.24C8.3783 27 7.55341 26.6565 6.94637 26.0474C6.33958 25.4385 6 24.6143 6 23.7564V9.17779C6 7.59434 7.15259 6.20009 8.77375 6.01098C9.32491 5.94695 9.87738 5.89146 10.4302 5.8446C10.9508 4.75637 12.0622 4 13.3543 4H16.6457C16.6458 4 16.6456 4 16.6457 4ZM8.95361 7.53386C9.343 7.48863 9.73287 7.4478 10.1232 7.41139L8.95361 7.53386ZM10.1232 7.41139C10.1612 7.77001 10.3204 8.10785 10.5786 8.36692C10.877 8.66634 11.2833 8.8359 11.7086 8.8359H18.2914C18.7167 8.8359 19.123 8.66634 19.4214 8.36692C19.6795 8.10789 19.8387 7.77012 19.8768 7.41156C20.268 7.448 20.6577 7.4887 21.0463 7.53385C21.8403 7.62656 22.4571 8.32205 22.4571 9.17779V23.7564C22.4571 24.2124 22.2766 24.6482 21.9575 24.9683C21.6386 25.2883 21.2077 25.4667 20.76 25.4667H9.24C8.79229 25.4667 8.3614 25.2883 8.04254 24.9683C7.72344 24.6482 7.54286 24.2124 7.54286 23.7564V9.17779C7.54286 8.32188 8.15903 7.62674 8.95361 7.53386M11.7213 6.77472C11.6799 6.92426 11.6571 7.08217 11.6571 7.24359C11.6571 7.26158 11.6643 7.27738 11.6748 7.28789C11.685 7.29815 11.6973 7.30256 11.7086 7.30256H18.2914C18.3027 7.30256 18.315 7.29815 18.3252 7.28789C18.3357 7.27738 18.3429 7.26158 18.3429 7.24359C18.3429 7.07935 18.3205 6.92235 18.2794 6.77713C18.178 6.41724 17.9625 6.10121 17.6675 5.87734C17.3726 5.65356 17.0139 5.5332 16.646 5.53333H13.3543C12.5836 5.53333 11.9239 6.05403 11.7213 6.77472Z" fill="black"/>
<path fill-rule="evenodd" clip-rule="evenodd" d="M17.7185 14.1628C18.042 14.4191 18.0944 14.8866 17.8357 15.2069L14.8357 18.9212C14.7024 19.0862 14.5045 19.1872 14.2915 19.1989C14.0785 19.2105 13.8705 19.1318 13.7197 18.9824L12.2197 17.4967C11.9268 17.2066 11.9268 16.7363 12.2197 16.4462C12.5126 16.1561 12.9874 16.1561 13.2803 16.4462L14.1878 17.345L16.6643 14.2788C16.9231 13.9585 17.3951 13.9065 17.7185 14.1628Z" fill="#0D0D0E"/>
</svg>
