<svg width="30" height="30" viewBox="0 0 30 30" fill="none" xmlns="http://www.w3.org/2000/svg">
<path d="M23.1 14.1013C22.8613 14.1013 22.6324 14.1961 22.4636 14.3649C22.2948 14.5337 22.2 14.7626 22.2 15.0013C22.2107 16.687 21.6333 18.3237 20.5671 19.6295C19.5009 20.9353 18.0128 21.8284 16.359 22.155C14.7052 22.4817 12.9892 22.2214 11.5067 21.419C10.0241 20.6166 8.86777 19.3223 8.23679 17.7591C7.60582 16.1959 7.53971 14.4616 8.04986 12.8549C8.56 11.2482 9.61447 9.86963 11.0316 8.95672C12.4488 8.0438 14.14 7.65364 15.8138 7.85344C17.4877 8.05323 19.0395 8.83048 20.202 10.0513H18.042C17.8033 10.0513 17.5744 10.1461 17.4056 10.3149C17.2368 10.4837 17.142 10.7126 17.142 10.9513C17.142 11.19 17.2368 11.4189 17.4056 11.5877C17.5744 11.7565 17.8033 11.8513 18.042 11.8513H22.119C22.3577 11.8513 22.5866 11.7565 22.7554 11.5877C22.9242 11.4189 23.019 11.19 23.019 10.9513V6.90132C23.019 6.66262 22.9242 6.4337 22.7554 6.26492C22.5866 6.09614 22.3577 6.00132 22.119 6.00132C21.8803 6.00132 21.6514 6.09614 21.4826 6.26492C21.3138 6.4337 21.219 6.66262 21.219 6.90132V8.49431C19.7202 7.06157 17.7727 6.19028 15.7056 6.02771C13.6386 5.86515 11.5788 6.4213 9.87443 7.60214C8.17009 8.78298 6.92575 10.5161 6.35175 12.5085C5.77775 14.5009 5.90929 16.6304 6.72415 18.537C7.53901 20.4436 8.98719 22.0104 10.8239 22.9725C12.6606 23.9346 14.7732 24.233 16.8045 23.8172C18.8359 23.4015 20.6614 22.2971 21.9724 20.6908C23.2835 19.0845 23.9997 17.0747 24 15.0013C24 14.7626 23.9052 14.5337 23.7364 14.3649C23.5676 14.1961 23.3387 14.1013 23.1 14.1013Z" fill="#0D0D0E"/>
</svg>
