<svg width="30" height="30" viewBox="0 0 30 30" fill="none" xmlns="http://www.w3.org/2000/svg">
<path fill-rule="evenodd" clip-rule="evenodd" d="M13.4069 5.64286C12.9844 5.64315 12.5794 5.81633 12.2807 6.12436C11.982 6.43239 11.8141 6.85009 11.8138 7.28571H18.1861C18.1861 6.85 18.0182 6.43213 17.7195 6.12404C17.4207 5.81594 17.0155 5.64286 16.593 5.64286H13.4069ZM10.5468 5.83781C10.8093 5.28639 11.2164 4.8219 11.7219 4.49705C12.2275 4.1722 12.8112 4 13.4069 4H16.593C17.1889 3.9998 17.7728 4.1719 18.2786 4.49676C18.7843 4.82162 19.1916 5.28623 19.4542 5.83781C19.982 5.88381 20.5077 5.93857 21.0324 6.0021C22.6223 6.19157 23.7618 7.60114 23.7618 9.21005V23.7143C23.7618 24.5857 23.4262 25.4214 22.8286 26.0376C22.2311 26.6538 21.4207 27 20.5757 27H9.42418C8.57917 27 7.76876 26.6538 7.17124 26.0376C6.57372 25.4214 6.23804 24.5857 6.23804 23.7143V9.21005C6.23804 7.60005 7.37762 6.19157 8.9675 6.001C9.49109 5.93857 10.0179 5.8849 10.5468 5.83781ZM18.077 14.214C18.4312 14.4947 18.4886 15.0067 18.2052 15.3576L14.9195 19.4256C14.7736 19.6063 14.5568 19.7169 14.3235 19.7297C14.0903 19.7425 13.8625 19.6563 13.6973 19.4926L12.0544 17.8654C11.7336 17.5477 11.7336 17.0326 12.0544 16.7148C12.3752 16.3971 12.8953 16.3971 13.2161 16.7148L14.21 17.6993L16.9224 14.3411C17.2058 13.9902 17.7227 13.9333 18.077 14.214Z" fill="#0D0D0E"/>
</svg>
