<svg width="30" height="30" viewBox="0 0 30 30" fill="none" xmlns="http://www.w3.org/2000/svg">
<g clip-path="url(#clip0_436_94479)">
<path d="M15.1 23.16H15.08C13.64 23.13 12.23 22.72 11 21.99C9.77 21.25 8.76 20.21 8.08 18.96C7.4 17.71 7.06 16.31 7.11 14.89C7.16 13.47 7.59 12.08 8.36 10.87L9.54 9.01L6.92 9.63C6.51 9.72 6.11 9.48 6.02 9.07C5.92 8.67 6.17 8.26 6.58 8.17L10.99 7.12C11.09 7.1 11.19 7.09 11.29 7.12C11.38 7.13 11.46 7.16 11.54 7.21C11.56 7.22 11.58 7.24 11.6 7.25C11.66 7.3 11.72 7.35 11.76 7.41C11.82 7.49 11.86 7.58 11.89 7.68L12.91 11.99C13.01 12.39 12.76 12.8 12.35 12.89C11.95 12.99 11.54 12.74 11.45 12.33L10.84 9.75L9.63 11.66C9.01 12.64 8.66 13.77 8.62 14.93C8.58 16.08 8.85 17.22 9.4 18.23C9.95 19.24 10.78 20.09 11.77 20.69C12.77 21.29 13.93 21.62 15.11 21.65C15.52 21.65 15.85 22 15.84 22.42C15.84 22.83 15.5 23.15 15.09 23.15L15.1 23.16ZM19.55 23.06C19.55 23.06 19.5 23.06 19.47 23.06C19.45 23.06 19.44 23.06 19.42 23.06C19.12 23.01 18.88 22.79 18.81 22.49L17.79 18.18C17.69 17.78 17.94 17.37 18.35 17.28C18.75 17.19 19.16 17.43 19.25 17.84L19.86 20.42L21.07 18.51C21.69 17.53 22.04 16.4 22.08 15.24C22.12 14.09 21.85 12.95 21.3 11.94C20.75 10.93 19.93 10.08 18.93 9.48C17.93 8.88 16.77 8.55 15.59 8.52C15.18 8.52 14.85 8.17 14.86 7.75C14.87 7.34 15.23 7.01 15.63 7.02C17.07 7.05 18.48 7.46 19.71 8.19C20.94 8.93 21.95 9.97 22.63 11.22C23.31 12.47 23.65 13.87 23.6 15.29C23.55 16.71 23.12 18.1 22.35 19.31L21.17 21.17L23.79 20.55C24.18 20.46 24.6 20.7 24.69 21.11C24.79 21.51 24.54 21.92 24.13 22.01L19.72 23.06C19.66 23.07 19.6 23.08 19.55 23.08V23.06Z" fill="#42424D"/>
</g>
<defs>
<clipPath id="clip0_436_94479">
<rect width="18.71" height="16.16" fill="white" transform="translate(6 7)"/>
</clipPath>
</defs>
</svg>
