<svg width="30" height="30" viewBox="0 0 30 30" fill="none" xmlns="http://www.w3.org/2000/svg">
<path fill-rule="evenodd" clip-rule="evenodd" d="M14.399 6.39895C14.7309 6.06701 15.2691 6.06701 15.6011 6.39895L19.6011 10.399C19.933 10.7309 19.933 11.2691 19.6011 11.601C19.2691 11.933 18.7309 11.933 18.399 11.601L15.85 9.05208V19C15.85 19.4694 15.4695 19.85 15 19.85C14.5306 19.85 14.15 19.4694 14.15 19V9.05208L11.6011 11.601C11.2691 11.933 10.7309 11.933 10.399 11.601C10.067 11.2691 10.067 10.7309 10.399 10.399L14.399 6.39895ZM7.00002 18.15C7.46947 18.15 7.85002 18.5306 7.85002 19V21C7.85002 21.305 7.97118 21.5975 8.18685 21.8132C8.40252 22.0288 8.69503 22.15 9.00002 22.15H21C21.305 22.15 21.5975 22.0288 21.8132 21.8132C22.0289 21.5975 22.15 21.305 22.15 21V19C22.15 18.5306 22.5306 18.15 23 18.15C23.4695 18.15 23.85 18.5306 23.85 19V21C23.85 21.7559 23.5498 22.4808 23.0153 23.0152C22.4808 23.5497 21.7559 23.85 21 23.85H9.00002C8.24416 23.85 7.51925 23.5497 6.98477 23.0152C6.45029 22.4808 6.15002 21.7559 6.15002 21V19C6.15002 18.5306 6.53058 18.15 7.00002 18.15Z" fill="black"/>
</svg>
