<svg width="50" height="50" viewBox="0 0 50 50" fill="none" xmlns="http://www.w3.org/2000/svg">
<g clip-path="url(#clip0_7223_6388)">
<path d="M45.0002 13.8902C45.0002 15.7322 43.5163 17.2289 41.6743 17.2289C39.8323 17.2289 38.3356 15.7322 38.3356 13.8902C38.3356 12.0482 39.8195 10.5643 41.6743 10.5643C43.5291 10.5643 45.0002 12.0482 45.0002 13.8902ZM39.4485 8.33857C39.4485 9.56658 38.4508 10.5643 37.2228 10.5643C35.9947 10.5643 35.0098 9.56658 35.0098 8.33857C35.0098 7.11055 36.0075 6.11279 37.2228 6.11279C38.438 6.11279 39.4485 7.11055 39.4485 8.33857Z" fill="#FF2A50"/>
<path d="M5 13.8903C5 15.7323 6.49664 17.229 8.32587 17.229C10.1551 17.229 11.6645 15.7323 11.6645 13.8903C11.6645 12.0483 10.1679 10.5644 8.32587 10.5644C6.48385 10.5644 5 12.0483 5 13.8903ZM10.5516 8.32587C10.5516 9.55389 11.5494 10.5516 12.7774 10.5516C14.0054 10.5516 15.0032 9.55389 15.0032 8.32587C15.0032 7.09786 14.0054 6.1001 12.7774 6.1001C11.5494 6.1001 10.5516 7.09786 10.5516 8.32587ZM44.9872 9.43876C44.9872 11.2808 43.5034 12.7774 41.6613 12.7774C39.8193 12.7774 38.3227 11.2808 38.3227 9.43876C38.3227 7.59674 39.8065 6.11289 41.6613 6.11289C43.5162 6.11289 44.9872 7.60953 44.9872 9.43876Z" fill="#FF2A50"/>
<path d="M5 9.43866C5 11.2807 6.49664 12.7773 8.32587 12.7773C10.1551 12.7773 11.6645 11.2807 11.6645 9.43866C11.6645 7.59664 10.1679 6.11279 8.32587 6.11279C6.48385 6.11279 5 7.60943 5 9.43866Z" fill="#FF2A50"/>
<path d="M45 24.9936C45 36.0457 36.0457 45 25.0064 45C13.9671 45 5 36.0457 5 24.9936C5 13.9415 13.9543 5 25.0064 5C36.0585 5 45 13.9543 45 24.9936Z" fill="#FFEDC7"/>
<path d="M41.6615 10.0014C41.6615 11.5364 40.4207 12.7772 38.8857 12.7772C37.3507 12.7772 36.1099 11.5364 36.1099 10.0014C36.1099 8.46639 37.3507 7.22559 38.8857 7.22559C40.4207 7.22559 41.6615 8.46639 41.6615 10.0014Z" fill="#FF2A50"/>
<path d="M8.32568 10.0014C8.32568 11.5364 9.56649 12.7772 11.1015 12.7772C12.6365 12.7772 13.8773 11.5364 13.8773 10.0014C13.8773 8.46639 12.6365 7.22559 11.1015 7.22559C9.56649 7.22559 8.32568 8.46639 8.32568 10.0014ZM42.774 12.7772C42.774 14.0052 41.7763 15.003 40.5483 15.003C39.3202 15.003 38.3225 14.0052 38.3225 12.7772C38.3225 11.5492 39.3202 10.5515 40.5483 10.5642C41.7763 10.5642 42.774 11.562 42.774 12.79" fill="#FF2A50"/>
<path d="M7.22559 12.7776C7.22559 14.0056 8.22335 15.0033 9.45136 15.0033C10.6794 15.0033 11.6771 14.0056 11.6771 12.7776C11.6771 11.5495 10.6794 10.5518 9.45136 10.5646C8.22335 10.5646 7.22559 11.5623 7.22559 12.7904" fill="#FF2A50"/>
<path d="M41.5845 28.3323C41.5845 30.7883 39.589 32.7711 37.1457 32.7711C34.7025 32.7711 32.707 30.7883 32.707 28.3323C32.707 25.8763 34.7025 23.8936 37.1457 23.8936C39.589 23.8936 41.5845 25.8891 41.5845 28.3323ZM17.1393 28.3323C17.1393 30.7883 15.1438 32.7711 12.6878 32.7711C10.2318 32.7711 8.24902 30.7883 8.24902 28.3323C8.24902 25.8763 10.2318 23.8936 12.6878 23.8936C15.1438 23.8936 17.1393 25.8891 17.1393 28.3323Z" fill="#FF7892"/>
<path d="M35.3676 31.2488C35.1629 31.0697 34.8815 31.0569 34.664 31.2232C34.6129 31.2488 30.302 34.4468 24.9934 34.4468C19.6848 34.4468 15.374 31.2616 15.3228 31.2232C15.1693 30.9546 14.8239 30.8779 14.5553 31.0314C14.2995 31.1849 14.2099 31.5302 14.3634 31.7989C14.4018 31.8628 14.4402 31.914 14.5041 31.9524C14.6448 32.1954 18.073 39.4484 24.9806 39.4484C31.8882 39.4484 35.3164 32.1954 35.4571 31.9524C35.5978 31.7221 35.5467 31.4279 35.3548 31.2488" fill="#DA2F47"/>
<path d="M29.4454 26.6695C29.4838 28.8186 27.7697 30.5838 25.6206 30.6222C23.4716 30.6606 21.7063 28.9465 21.668 26.8102C21.668 26.7591 21.668 26.7207 21.668 26.6823C21.6936 24.5333 23.4716 22.8192 25.6206 22.8576C27.7185 22.8831 29.407 24.5845 29.4454 26.6823" fill="#FF2A50"/>
<path d="M36.5317 17.6513C36.5317 17.6513 36.6084 17.549 36.6212 17.485C36.7747 16.8838 36.4037 16.2954 35.8153 16.1419C35.6107 16.0907 30.8521 14.9395 27.1553 17.4083C26.6436 17.7409 26.5029 18.4316 26.8483 18.9433C27.1808 19.455 27.8716 19.5829 28.3961 19.2503C29.6113 18.4444 31.0184 18.1502 32.2464 18.0735C32.2464 18.1502 32.2208 18.2397 32.2208 18.3293C32.2208 19.5573 33.2186 20.5551 34.4466 20.5551C35.6746 20.5551 36.6724 19.5573 36.6724 18.3293C36.6724 18.099 36.6212 17.8688 36.5572 17.6513" fill="#504122"/>
<path d="M23.203 17.664C23.203 17.664 23.2669 17.5617 23.2925 17.4977C23.4332 16.8965 23.075 16.2953 22.4866 16.1546C22.2819 16.1034 17.5234 14.9522 13.8266 17.421C13.3277 17.7791 13.2126 18.4699 13.5707 18.9688C13.9033 19.4549 14.5685 19.5828 15.0674 19.2758C16.2826 18.4571 17.6897 18.1757 18.9177 18.0989C18.9049 18.1757 18.8921 18.2652 18.8921 18.3548C18.8921 19.5828 19.8899 20.5806 21.1179 20.5806C22.3459 20.5806 23.3437 19.5828 23.3437 18.3548C23.3437 18.1245 23.2925 17.8943 23.2285 17.6896" fill="#504122"/>
</g>
<defs>
<clipPath id="clip0_7223_6388">
<rect width="40" height="40" fill="white" transform="translate(5 5)"/>
</clipPath>
</defs>
</svg>
