<svg width="30" height="30" viewBox="0 0 30 30" fill="none" xmlns="http://www.w3.org/2000/svg">
<g clip-path="url(#clip0_18_905)">
<path d="M16.74 24.7H14.15C13.18 24.7 12.36 24.01 12.2 23.05L11.99 21.77C11.97 21.67 11.89 21.57 11.77 21.5L11.53 21.36C11.41 21.29 11.28 21.26 11.19 21.3L9.97002 21.76C9.54002 21.92 9.05002 21.93 8.61002 21.77C8.17002 21.61 7.80002 21.3 7.57002 20.9L6.27002 18.65C6.04002 18.24 5.95002 17.77 6.04002 17.31C6.12002 16.85 6.37002 16.43 6.73002 16.14L7.73002 15.31C7.81002 15.25 7.85002 15.12 7.85002 14.99C7.85002 14.9 7.85002 14.8 7.85002 14.7C7.85002 14.57 7.81002 14.45 7.73002 14.39L6.73002 13.56C6.37002 13.26 6.13002 12.85 6.04002 12.39C5.96002 11.93 6.04002 11.45 6.27002 11.05L7.57002 8.8C7.81002 8.39 8.18002 8.09 8.62002 7.93C9.06002 7.77 9.54002 7.78 9.98002 7.94L11.19 8.4C11.29 8.43 11.41 8.42 11.53 8.34C11.61 8.29 11.7 8.24 11.78 8.19C11.9 8.12 11.98 8.03 12 7.93L12.21 6.65C12.37 5.69 13.19 5 14.16 5H16.75C17.72 5 18.54 5.69 18.7 6.65L18.91 7.93C18.93 8.03 19.01 8.13 19.13 8.2C19.21 8.24 19.29 8.29 19.38 8.34C19.5 8.41 19.63 8.43 19.72 8.4L20.94 7.94C21.37 7.78 21.86 7.77 22.3 7.93C22.74 8.09 23.11 8.39 23.34 8.8L24.64 11.05C24.87 11.46 24.96 11.93 24.87 12.39C24.79 12.85 24.54 13.27 24.18 13.56L23.18 14.39C23.1 14.45 23.06 14.57 23.06 14.71C23.06 14.8 23.06 14.9 23.06 15C23.06 15.13 23.1 15.25 23.18 15.31L24.18 16.14C24.93 16.76 25.12 17.81 24.64 18.65L23.34 20.9C23.11 21.3 22.74 21.61 22.3 21.77C21.86 21.93 21.38 21.92 20.94 21.76L19.72 21.3C19.63 21.26 19.5 21.28 19.38 21.36L19.13 21.5C19.01 21.57 18.93 21.67 18.91 21.77L18.7 23.05C18.54 24.01 17.72 24.7 16.75 24.7H16.74ZM11.28 19.59C11.66 19.59 12.05 19.7 12.4 19.91L12.59 20.02C13.17 20.34 13.56 20.88 13.66 21.5L13.87 22.78C13.89 22.91 14.01 23.01 14.14 23.01H16.73C16.87 23.01 16.98 22.91 17 22.78L17.21 21.5C17.31 20.88 17.7 20.35 18.28 20.03L18.47 19.92C19.03 19.58 19.7 19.51 20.28 19.73L21.5 20.19C21.56 20.21 21.63 20.21 21.69 20.19C21.75 20.17 21.8 20.13 21.83 20.07L23.13 17.82C23.2 17.7 23.17 17.56 23.06 17.47L22.06 16.64C21.58 16.24 21.31 15.64 21.32 14.98V14.76C21.31 14.09 21.58 13.49 22.06 13.09L23.06 12.26C23.11 12.22 23.15 12.16 23.16 12.09C23.17 12.03 23.16 11.96 23.13 11.9L21.83 9.65C21.8 9.59 21.75 9.55 21.69 9.53C21.63 9.51 21.56 9.51 21.5 9.53L20.28 9.99C19.69 10.21 19.03 10.14 18.47 9.8L18.29 9.69C17.7 9.37 17.31 8.83 17.21 8.21L17 6.93C16.98 6.8 16.86 6.7 16.73 6.7H14.14C14.01 6.7 13.89 6.8 13.87 6.93L13.66 8.21C13.56 8.83 13.17 9.36 12.59 9.68L12.4 9.79C11.83 10.13 11.17 10.2 10.58 9.98L9.36002 9.52C9.30002 9.5 9.23002 9.5 9.17002 9.52C9.11002 9.54 9.05002 9.59 9.02002 9.64L7.72002 11.89C7.69002 11.95 7.68002 12.01 7.69002 12.08C7.70002 12.14 7.74002 12.2 7.79002 12.24L8.79002 13.07C9.27002 13.47 9.54002 14.07 9.53002 14.73V14.95C9.54002 15.62 9.27002 16.22 8.79002 16.62L7.79002 17.45C7.74002 17.49 7.71002 17.55 7.69002 17.61C7.68002 17.67 7.69002 17.74 7.72002 17.8L9.02002 20.05C9.05002 20.11 9.10002 20.15 9.17002 20.17C9.23002 20.19 9.30002 20.19 9.36002 20.17L10.58 19.71C10.8 19.63 11.04 19.58 11.28 19.58V19.59Z" fill="#0D0D0E"/>
<path d="M15.44 18.7C14.41 18.7 13.44 18.3 12.72 17.57C11.99 16.84 11.59 15.88 11.59 14.85C11.59 13.82 11.99 12.86 12.72 12.13C14.17 10.68 16.71 10.68 18.16 12.13C18.89 12.86 19.29 13.82 19.29 14.85C19.29 15.88 18.89 16.85 18.16 17.57C17.43 18.3 16.47 18.7 15.44 18.7ZM15.44 12.7C14.87 12.7 14.33 12.92 13.92 13.33C13.52 13.73 13.29 14.29 13.29 14.85C13.29 15.41 13.52 15.97 13.92 16.37C14.73 17.18 16.15 17.18 16.96 16.37C17.37 15.96 17.59 15.42 17.59 14.85C17.59 14.28 17.37 13.74 16.96 13.33C16.55 12.92 16.01 12.7 15.44 12.7Z" fill="#0D0D0E"/>
</g>
<defs>
<clipPath id="clip0_18_905">
<rect width="18.89" height="19.7" fill="white" transform="translate(6 5)"/>
</clipPath>
</defs>
</svg>
