<svg width="132" height="132" viewBox="0 0 132 132" fill="none" xmlns="http://www.w3.org/2000/svg">
<g clip-path="url(#clip0_596_122857)">
<mask id="mask0_596_122857" style="mask-type:luminance" maskUnits="userSpaceOnUse" x="13" y="13" width="106" height="106">
<path d="M118.8 13.2002H13.2002V118.8H118.8V13.2002Z" fill="white"/>
</mask>
<g mask="url(#mask0_596_122857)">
<path d="M118.8 65.9833C118.8 95.1609 95.1609 118.8 65.9833 118.8C36.8057 118.8 13.2002 95.1609 13.2002 65.9833C13.2002 36.8057 36.8395 13.2002 65.9833 13.2002C95.1272 13.2002 118.8 36.8395 118.8 65.9833Z" fill="#FFE074"/>
<path d="M93.371 79.5595C92.8644 79.0867 92.0877 79.0529 91.5136 79.4919C91.4123 79.5595 80.0317 88.0021 65.9832 88.0021C51.9347 88.0021 40.5878 79.5932 40.4865 79.4919C40.0475 78.8165 39.1695 78.5463 38.4603 78.9854C37.7849 79.4244 37.5485 80.3024 37.9538 81.0116C38.0551 81.1804 38.1901 81.3155 38.3252 81.4168C38.6967 82.0585 47.7472 96.8161 65.9832 96.8161C84.2192 96.8161 93.2697 82.0585 93.6411 81.4168C94.0126 80.809 93.8775 80.066 93.371 79.5932" fill="#504122"/>
<path d="M65.9834 13.9434C38.5618 13.9434 14.855 18.4348 14.855 28.7348C14.855 39.0348 38.5618 44.2692 65.9834 44.2692C93.4049 44.2692 117.112 39.0348 117.112 28.7348C117.112 18.4348 93.4387 13.9434 65.9834 13.9434ZM65.9834 35.8266C45.3834 35.8266 27.2487 33.1925 27.2487 27.2151C27.2487 21.2378 45.4172 17.0502 65.9834 17.0502C86.5495 17.0502 104.718 21.1702 104.718 27.1814C104.718 33.1925 86.5833 35.7928 65.9834 35.7928" fill="#7AC4FF"/>
<path d="M60.1412 68.921C58.9254 68.921 57.7773 68.1443 57.3382 66.8948C56.7304 65.1387 54.3664 60.1069 51.3271 60.1069C48.2878 60.1069 45.7888 65.4764 45.316 66.8948C44.8094 68.4144 43.1547 69.2587 41.635 68.7521C40.1153 68.2456 39.2711 66.5908 39.7776 65.0712C40.1491 63.9567 43.5937 54.2646 51.3609 54.2646C59.1281 54.2646 62.5726 63.9567 62.9441 65.0712C63.4507 66.5908 62.6402 68.2456 61.0868 68.7859C60.7828 68.8872 60.4789 68.9548 60.175 68.9548M89.5214 68.9548C88.2719 68.9548 87.1237 68.1443 86.7185 66.9285C86.1106 65.1725 83.7129 60.1407 80.7074 60.1407C77.7018 60.1407 75.169 65.5102 74.6962 66.9285C74.1897 68.4482 72.5349 69.2925 71.0153 68.7859C69.4956 68.2794 68.6513 66.6246 69.1579 65.1049C69.5294 63.9905 72.9739 54.2984 80.7411 54.2984C88.5083 54.2984 91.9529 63.9905 92.3244 65.1049C92.8309 66.6246 92.0204 68.2794 90.5008 68.7859C90.1968 68.921 89.8929 68.9548 89.5552 68.9548" fill="#504122"/>
<path d="M96.7143 23.0949C94.7894 21.8116 92.7632 20.4271 90.8383 19.4139C83.2062 15.294 74.6623 13.2002 65.9833 13.2002C57.4056 13.2002 49.3007 15.2602 42.1076 18.9074C38.8994 20.5284 36.603 21.8116 35.7588 23.1287H96.7143V23.0949Z" fill="#FFE074"/>
</g>
</g>
<defs>
<clipPath id="clip0_596_122857">
<rect width="105.6" height="105.6" fill="white" transform="translate(13.2002 13.2002)"/>
</clipPath>
</defs>
</svg>
