<svg width="50" height="50" viewBox="0 0 50 50" fill="none" xmlns="http://www.w3.org/2000/svg">
<g clip-path="url(#clip0_7223_6322)">
<path d="M45 24.9936C45 36.0457 36.0457 45 24.9936 45C13.9415 45 5 36.0457 5 24.9936C5 13.9415 13.9543 5 24.9936 5C36.0329 5 45 13.9543 45 24.9936Z" fill="#FFE074"/>
<path d="M34.4339 19.9922C34.4339 22.1413 33.1931 23.8809 31.6581 23.8809C30.1231 23.8809 28.8823 22.1413 28.8823 19.9922C28.8823 17.8432 30.1231 16.1035 31.6581 16.1035C33.1931 16.1035 34.4339 17.8432 34.4339 19.9922ZM21.1049 19.9922C21.1049 22.1413 19.8641 23.8809 18.329 23.8809C16.794 23.8809 15.5532 22.1413 15.5532 19.9922C15.5532 17.8432 16.794 16.1035 18.329 16.1035C19.8641 16.1035 21.1049 17.8432 21.1049 19.9922ZM16.6789 31.2362C16.7301 31.4409 17.9837 36.1099 24.9936 36.1099C32.0035 36.1099 33.2571 31.4409 33.3083 31.2362C33.385 30.942 33.2059 30.635 32.9117 30.5583C32.7198 30.5071 32.5152 30.5583 32.3745 30.699C32.3489 30.7246 30.1998 32.7585 24.9936 32.7585C19.7873 32.7585 17.6255 30.7246 17.6127 30.699C17.4336 30.5327 17.165 30.4943 16.9475 30.6094C16.7301 30.7374 16.6277 30.9932 16.6789 31.2234" fill="#504122"/>
<path d="M-3.90364 14.3867C-6.68334 15.4608 -9.42979 16.881 -10.772 19.0659C-11.7813 20.7032 -11.6874 22.179 -11.3097 23.2438C-11.1251 23.7641 -10.8771 24.177 -10.6753 24.4605C-10.5738 24.603 -10.4825 24.715 -10.4141 24.7939C-10.3798 24.8334 -10.351 24.8648 -10.3294 24.8877C-10.3213 24.8963 -10.3142 24.9037 -10.3082 24.91C-10.3003 24.9187 -10.2904 24.9296 -10.2785 24.9422C-10.252 24.9705 -10.2154 25.0081 -10.1691 25.0529C-10.0767 25.1422 -9.94428 25.2608 -9.77357 25.3903C-9.43346 25.6485 -8.93171 25.9575 -8.28288 26.1598C-6.94334 26.5777 -5.11288 26.4984 -2.97882 24.914L-2.97856 24.9138C-1.68276 23.9509 -0.812941 23.2827 0.190117 22.5122C0.869393 21.9904 1.60977 21.4216 2.58493 20.6826C6.07705 18.043 12.8977 15.202 15.2131 14.264C16.3685 13.7968 17.338 12.5847 17.1131 11.1753L17.1126 11.1722C17.0242 10.6327 16.788 10.0832 16.3636 9.63252C15.7636 8.89965 14.7282 8.7698 13.8148 8.80444C12.8264 8.84192 11.6592 9.08612 10.4888 9.41021C8.3759 9.99529 6.10597 10.884 4.59607 11.4751C4.42908 11.5405 4.27139 11.6022 4.12423 11.6595C3.10378 12.0528 1.90194 12.4357 0.602767 12.8497C0.523296 12.875 0.443459 12.9005 0.363278 12.926C-1.0179 13.3664 -2.49081 13.8408 -3.90364 14.3867Z" fill="#FFE074" stroke="white" stroke-width="1.5"/>
<path d="M3.91249 18.8703C4.26056 18.0107 3.54814 16.2866 3.54814 16.2866L3.15148 16.5977L3.50145 19.1436L3.91303 18.8831L3.91249 18.8703Z" fill="#FFC839"/>
<path d="M3.91915 16.2709C3.91915 16.2709 11.5892 12.0188 14.8323 12.1134C14.8323 12.1134 15.8457 11.8532 15.8497 10.7264C15.8497 10.7264 15.9909 11.0406 15.9398 11.35C15.9398 11.35 15.654 12.1686 14.8004 12.2683C14.8004 12.2683 14.0709 12.2733 12.8674 12.5798C12.0436 12.7808 11.0857 13.141 9.64961 13.7005C9.64961 13.7005 5.14119 15.7971 3.91708 16.527L3.90637 16.2714L3.91915 16.2709Z" fill="#FFC839"/>
<path d="M4.25974 17.6779C4.25974 17.6779 11.3153 13.7333 13.9471 13.5974C13.9471 13.5974 14.9312 13.5561 15.5158 13.1475L15.5435 13.1976C15.5435 13.1976 15.1889 13.5965 13.9386 13.7001C13.9386 13.7001 12.4709 13.8129 8.96729 15.4449C8.96729 15.4449 4.88859 17.4082 4.25499 17.8701L4.24642 17.6656L4.25974 17.6779Z" fill="#FFC839"/>
</g>
<defs>
<clipPath id="clip0_7223_6322">
<rect width="50" height="50" fill="white"/>
</clipPath>
</defs>
</svg>
