<svg width="38" height="25" viewBox="0 0 38 25" fill="none" xmlns="http://www.w3.org/2000/svg">
<g opacity="0.5">
<path fill-rule="evenodd" clip-rule="evenodd" d="M10.22 6.05351C10.5134 5.76016 10.989 5.76016 11.2823 6.05351L16.4467 11.2178C16.74 11.5112 16.74 11.9868 16.4467 12.2801L11.2823 17.4445C10.989 17.7378 10.5134 17.7378 10.22 17.4445C9.92666 17.1511 9.92666 16.6755 10.22 16.3821L14.8532 11.749L10.22 7.11583C9.92666 6.82248 9.92666 6.34686 10.22 6.05351Z" fill="#FF576B"/>
</g>
<g opacity="0.5">
<path fill-rule="evenodd" clip-rule="evenodd" d="M16.22 6.05351C16.5134 5.76016 16.989 5.76016 17.2823 6.05351L22.4467 11.2178C22.74 11.5112 22.74 11.9868 22.4467 12.2801L17.2823 17.4445C16.989 17.7378 16.5134 17.7378 16.22 17.4445C15.9267 17.1511 15.9267 16.6755 16.22 16.3821L20.8532 11.749L16.22 7.11583C15.9267 6.82248 15.9267 6.34686 16.22 6.05351Z" fill="#FF576B"/>
</g>
<g opacity="0.5">
<path fill-rule="evenodd" clip-rule="evenodd" d="M23.22 6.05351C23.5134 5.76016 23.989 5.76016 24.2823 6.05351L29.4467 11.2178C29.74 11.5112 29.74 11.9868 29.4467 12.2801L24.2823 17.4445C23.989 17.7378 23.5134 17.7378 23.22 17.4445C22.9267 17.1511 22.9267 16.6755 23.22 16.3821L27.8532 11.749L23.22 7.11583C22.9267 6.82248 22.9267 6.34686 23.22 6.05351Z" fill="#FF576B"/>
</g>
</svg>
