<svg width="50" height="50" viewBox="0 0 50 50" fill="none" xmlns="http://www.w3.org/2000/svg">
<g clip-path="url(#clip0_7223_11295)">
<path d="M45 24.9936C45 36.0457 36.0457 45 25.0064 45C13.9671 45 5 36.0457 5 24.9936C5 13.9415 13.9543 5 25.0064 5C36.0585 5 45 13.9543 45 24.9936Z" fill="#FFE074"/>
<path d="M34.997 23.3306C34.997 25.4796 33.7562 27.2193 32.2084 27.2193C30.6606 27.2193 29.4326 25.4796 29.4326 23.3306C29.4326 21.1816 30.6734 19.4419 32.2084 19.4419C33.7434 19.4419 34.997 21.1816 34.997 23.3306ZM20.5551 23.3306C20.5551 25.4796 19.3143 27.2193 17.7792 27.2193C16.2442 27.2193 15.0034 25.4796 15.0034 23.3306C15.0034 21.1816 16.2442 19.4419 17.7792 19.4419C19.3143 19.4419 20.5551 21.1816 20.5551 23.3306Z" fill="#504122"/>
<mask id="mask0_7223_11295" style="mask-type:luminance" maskUnits="userSpaceOnUse" x="13" y="28" width="24" height="24">
<path d="M20.1726 29.2155C19.7797 29.0842 19.3548 29.2963 19.2236 29.6892L14.2159 44.6798C14.0846 45.0727 14.2967 45.4976 14.6896 45.6288L29.6803 50.6365C30.0732 50.7678 30.498 50.5557 30.6293 50.1628L35.637 35.1721C35.7682 34.7793 35.5561 34.3544 35.1632 34.2231L20.1726 29.2155Z" fill="white" stroke="white" stroke-width="1.5" stroke-linejoin="round"/>
</mask>
<g mask="url(#mask0_7223_11295)">
<path d="M29.773 40.3732C29.5129 40.1635 29.2469 40.0458 28.9913 39.9983C28.8936 39.6444 28.6811 39.2654 28.2722 38.9464C27.8759 38.6374 27.471 38.5376 27.1134 38.552C26.9754 38.2253 26.7333 37.8795 26.3216 37.6041C26.0957 37.4522 25.8648 37.3702 25.645 37.3331L26.9344 33.4621C26.9346 33.4616 26.9348 33.461 26.935 33.4605C27.0409 33.1461 27.0978 32.6915 26.9491 32.2332C26.7868 31.7329 26.4006 31.3012 25.7657 31.0863C25.1166 30.8665 24.5444 30.9956 24.1213 31.3148C23.7402 31.6023 23.5312 32.0022 23.4364 32.2898C23.4362 32.2904 23.436 32.2911 23.4358 32.2917L21.9432 36.7652C21.8586 36.5341 21.7707 36.3539 21.7027 36.2345C21.3834 35.6737 20.8324 35.251 20.0601 35.1634L20.0601 35.1633L20.0568 35.163C19.7469 35.1292 19.4294 35.1555 19.1405 35.2956C18.8388 35.442 18.6413 35.6772 18.5245 35.9277C18.3198 36.3671 18.3545 36.88 18.3823 37.1765C18.5025 38.5421 18.2827 40.42 18.1235 41.302C17.5775 44.2125 19.2338 47.1551 22.1276 48.1282L22.1282 48.1284C25.2644 49.1802 28.727 47.5443 29.7883 44.3798L30.3388 42.7433C30.3491 42.7126 30.3574 42.6812 30.3637 42.6495C30.3761 42.6093 30.3905 42.5584 30.4048 42.4987C30.4376 42.3616 30.4726 42.1671 30.4769 41.9429C30.4853 41.4982 30.3684 40.8476 29.773 40.3732ZM24.8421 37.3701L26.2239 33.222C26.3589 32.8225 26.3534 32.0771 25.5252 31.7967C24.6969 31.5163 24.2732 32.1457 24.1483 32.5258L24.8421 37.3701Z" fill="#FFE074" stroke="white" stroke-width="1.5" stroke-linejoin="round"/>
</g>
</g>
<defs>
<clipPath id="clip0_7223_11295">
<rect width="50" height="50" fill="white"/>
</clipPath>
</defs>
</svg>
