<svg width="30" height="30" viewBox="0 0 30 30" fill="none" xmlns="http://www.w3.org/2000/svg">
<path fill-rule="evenodd" clip-rule="evenodd" d="M7.8658 6C7.10574 6 6.37681 6.30193 5.83937 6.83937C5.30193 7.37681 5 8.10574 5 8.8658V12.9906C5.00016 13.7506 5.3022 14.4794 5.83968 15.0167L14.9911 24.1691C15.87 25.048 17.2742 25.3021 18.3804 24.578C20.4518 23.2216 22.2212 21.4525 23.578 19.3814C24.3021 18.2732 24.048 16.87 23.1691 15.9921L14.0177 6.83968C13.7515 6.57343 13.4355 6.36224 13.0877 6.21816C12.7399 6.07409 12.3671 5.99995 11.9906 6H7.8658ZM8.94047 11.0151C9.22549 11.0151 9.49884 10.9019 9.70038 10.7004C9.90192 10.4988 10.0151 10.2255 10.0151 9.94047C10.0151 9.65545 9.90192 9.3821 9.70038 9.18056C9.49884 8.97902 9.22549 8.8658 8.94047 8.8658C8.65545 8.8658 8.3821 8.97902 8.18056 9.18056C7.97902 9.3821 7.8658 9.65545 7.8658 9.94047C7.8658 10.2255 7.97902 10.4988 8.18056 10.7004C8.3821 10.9019 8.65545 11.0151 8.94047 11.0151Z" fill="black"/>
</svg>
