<svg width="30" height="30" viewBox="0 0 30 30" fill="none" xmlns="http://www.w3.org/2000/svg">
<path fill-rule="evenodd" clip-rule="evenodd" d="M4.92772 5.92772C5.52172 5.33371 6.32737 5 7.16742 5H11.7264C12.1427 5 12.5549 5.08205 12.9394 5.24148C13.3238 5.40084 13.6731 5.63438 13.9672 5.92876L24.0818 16.0434C25.0527 17.0143 25.3345 18.5661 24.5327 19.7897C23.0336 22.0785 21.0785 24.0336 18.7897 25.5327C17.5661 26.3345 16.0143 26.0527 15.0434 25.0818L4.92837 14.9668C4.33332 14.3731 4 13.5662 4 12.7264V8.16742C4 7.32737 4.33371 6.52172 4.92772 5.92772ZM7.16742 6.58371C6.7474 6.58371 6.34457 6.75057 6.04757 7.04757C5.75057 7.34457 5.58371 7.7474 5.58371 8.16742V12.7264C5.58371 13.1472 5.75085 13.5503 6.0469 13.8456L16.1633 23.962C16.6683 24.467 17.3991 24.5506 17.9218 24.208C20.0285 22.8282 21.8281 21.0286 23.2079 18.922C23.5505 18.3993 23.467 17.6683 22.962 17.1633L12.8473 7.04862C12.7002 6.90134 12.5252 6.78416 12.3329 6.70445C12.1407 6.62474 11.9346 6.58371 11.7264 6.58371H7.16742Z" fill="black"/>
<path fill-rule="evenodd" clip-rule="evenodd" d="M7.16742 8.95928C7.16742 8.52195 7.52195 8.16742 7.95928 8.16742H7.96772C8.40505 8.16742 8.75958 8.52195 8.75958 8.95928V8.96772C8.75958 9.40505 8.40505 9.75958 7.96772 9.75958H7.95928C7.52195 9.75958 7.16742 9.40505 7.16742 8.96772V8.95928Z" fill="black"/>
</svg>
