<svg width="30" height="30" viewBox="0 0 30 30" fill="none" xmlns="http://www.w3.org/2000/svg">
<path d="M17.1159 20.44C17.8595 20.6464 18.6299 20.7507 19.4042 20.75C20.6495 20.7517 21.8785 20.4803 22.9968 19.9567C23.0298 19.2097 22.8073 18.4729 22.3628 17.8578C21.9184 17.2426 21.2762 16.7828 20.5338 16.5479C19.7913 16.313 18.989 16.3159 18.2484 16.5562C17.5078 16.7964 16.8694 17.2608 16.4298 17.8792M17.1159 20.44V20.4375C17.1159 19.51 16.8665 18.6375 16.4298 17.8792M17.1159 20.44V20.5283C15.4381 21.4942 13.516 22.0031 11.5575 22C9.52541 22 7.6241 21.4625 6.00087 20.5283L6 20.4375C5.99933 19.2579 6.40939 18.1116 7.16553 17.1794C7.92168 16.2472 8.98089 15.582 10.1762 15.2888C11.3715 14.9956 12.6348 15.0911 13.7671 15.5601C14.8994 16.0291 15.8362 16.845 16.4298 17.8792M14.5006 9.8125C14.5006 10.5584 14.1906 11.2738 13.6388 11.8012C13.087 12.3287 12.3387 12.625 11.5584 12.625C10.778 12.625 10.0297 12.3287 9.47792 11.8012C8.92615 11.2738 8.61616 10.5584 8.61616 9.8125C8.61616 9.06658 8.92615 8.35121 9.47792 7.82376C10.0297 7.29632 10.778 7 11.5584 7C12.3387 7 13.087 7.29632 13.6388 7.82376C14.1906 8.35121 14.5006 9.06658 14.5006 9.8125ZM21.6926 11.6875C21.6926 12.2677 21.4515 12.8241 21.0224 13.2343C20.5932 13.6445 20.0112 13.875 19.4042 13.875C18.7973 13.875 18.2153 13.6445 17.7861 13.2343C17.357 12.8241 17.1159 12.2677 17.1159 11.6875C17.1159 11.1073 17.357 10.5509 17.7861 10.1407C18.2153 9.73047 18.7973 9.5 19.4042 9.5C20.0112 9.5 20.5932 9.73047 21.0224 10.1407C21.4515 10.5509 21.6926 11.1073 21.6926 11.6875Z" stroke="#0D0D0E" stroke-width="1.5" stroke-linecap="round" stroke-linejoin="round"/>
</svg>
