<svg width="50" height="50" viewBox="0 0 50 50" fill="none" xmlns="http://www.w3.org/2000/svg">
<path fill-rule="evenodd" clip-rule="evenodd" d="M20.7547 5.45211C22.1262 5.15574 23.5487 5 25.0059 5C26.4629 5 27.885 5.1559 29.256 5.45253C30.1313 5.64192 30.6874 6.50506 30.498 7.38041C30.3086 8.25575 29.4455 8.81182 28.5701 8.62242C27.4232 8.37427 26.2309 8.24324 25.0059 8.24324C23.7804 8.24324 22.5874 8.37416 21.4397 8.62218C20.5643 8.81135 19.7013 8.25505 19.5122 7.37966C19.323 6.50427 19.8793 5.64128 20.7547 5.45211ZM16.4301 8.65574C16.9145 9.40904 16.6965 10.4124 15.9432 10.8968C13.9234 12.1956 12.2008 13.9164 10.9005 15.9345C10.4155 16.6873 9.41192 16.9044 8.65907 16.4193C7.90621 15.9343 7.68913 14.9307 8.1742 14.1779C9.72552 11.7701 11.7797 9.71816 14.189 8.16886C14.9423 7.68446 15.9457 7.90245 16.4301 8.65574ZM33.5774 8.65704C34.0622 7.90403 35.0657 7.68661 35.8187 8.17144C38.2264 9.72161 40.2785 11.7742 41.8282 14.1814C42.313 14.9345 42.0956 15.9379 41.3425 16.4227C40.5895 16.9075 39.586 16.69 39.1012 15.937C37.8021 13.9191 36.0811 12.1977 34.063 10.8984C33.31 10.4135 33.0926 9.41006 33.5774 8.65704ZM7.38089 19.5006C8.25621 19.6901 8.8122 20.5533 8.62272 21.4286C8.37436 22.5759 8.24324 23.7686 8.24324 24.9941C8.24324 26.2195 8.37454 27.4123 8.6232 28.5599C8.81285 29.4352 8.25704 30.2985 7.38175 30.4882C6.50646 30.6778 5.64316 30.122 5.45351 29.2467C5.15626 27.8749 5 26.4519 5 24.9941C5 23.5366 5.15602 22.1139 5.45289 20.7425C5.64237 19.8671 6.50556 19.3112 7.38089 19.5006ZM42.6192 19.502C43.4946 19.3126 44.3578 19.8686 44.5472 20.7439C44.844 22.1151 45 23.5374 45 24.9941C45 26.4513 44.8441 27.8738 44.5474 29.2453C44.358 30.1206 43.4949 30.6767 42.6195 30.4873C41.7442 30.298 41.1881 29.4348 41.3775 28.5595C41.6257 27.412 41.7568 26.2193 41.7568 24.9941C41.7568 23.7695 41.6257 22.5772 41.3774 21.43C41.1879 20.5547 41.7439 19.6915 42.6192 19.502ZM41.3427 33.5685C42.0959 34.0531 42.3136 35.0565 41.829 35.8097C40.2793 38.2184 38.2273 40.2721 35.8207 41.8234C35.0679 42.3086 34.0643 42.0917 33.5791 41.3389C33.0939 40.5862 33.3108 39.5826 34.0636 39.0974C36.0811 37.7969 37.8022 36.0744 39.1015 34.0549C39.5861 33.3017 40.5895 33.0839 41.3427 33.5685ZM8.66086 33.5704C9.41377 33.0854 10.4173 33.3025 10.9023 34.0554C12.203 36.0746 13.9257 37.7969 15.9446 39.0973C16.6975 39.5823 16.9147 40.5858 16.4297 41.3387C15.9448 42.0916 14.9413 42.3088 14.1883 41.8239C11.7806 40.273 9.72708 38.2199 8.1758 35.8118C7.69079 35.0589 7.90796 34.0554 8.66086 33.5704ZM19.5119 42.6179C19.7016 41.7426 20.5649 41.1869 21.4402 41.3766C22.5881 41.6254 23.7809 41.7568 25.0059 41.7568C26.2307 41.7568 27.4231 41.6255 28.5704 41.3767C29.4457 41.187 30.3091 41.7427 30.4988 42.618C30.6886 43.4932 30.1328 44.3566 29.2576 44.5463C27.8859 44.8437 26.4632 45 25.0059 45C23.5484 45 22.1253 44.8437 20.7532 44.5462C19.8779 44.3565 19.3221 43.4932 19.5119 42.6179Z" fill="#B0B4BF"/>
<path d="M34 23.5C34 25.4342 32.8829 27 31.4894 27C30.096 27 28.9904 25.4342 28.9904 23.5C28.9904 21.5658 30.1075 20 31.4894 20C32.8714 20 34 21.5658 34 23.5ZM20.9981 23.5C20.9981 25.4342 19.881 27 18.499 27C17.1171 27 16 25.4342 16 23.5C16 21.5658 17.1171 20 18.499 20C19.881 20 20.9981 21.5658 20.9981 23.5Z" fill="#B0B4BF"/>
</svg>
