<svg width="50" height="50" viewBox="0 0 50 50" fill="none" xmlns="http://www.w3.org/2000/svg">
<g clip-path="url(#clip0_7223_6289)">
<path d="M45 24.9936C45 36.0457 36.0457 45 25.0064 45C13.9671 45 5 36.0457 5 24.9936C5 13.9415 13.9543 5 24.9936 5C36.0329 5 44.9872 13.9543 44.9872 24.9936" fill="#FFE074"/>
<path d="M34.997 23.3306C34.997 25.4796 33.7562 27.2193 32.2084 27.2193C30.6606 27.2193 29.4326 25.4796 29.4326 23.3306C29.4326 21.1816 30.6734 19.4419 32.2084 19.4419C33.7434 19.4419 34.997 21.1816 34.997 23.3306ZM20.5551 23.3306C20.5551 25.4796 19.3143 27.2193 17.7792 27.2193C16.2442 27.2193 15.0034 25.4796 15.0034 23.3306C15.0034 21.1816 16.2442 19.4419 17.7792 19.4419C19.3143 19.4419 20.5551 21.1816 20.5551 23.3306Z" fill="#504122"/>
<path d="M21.6932 31.8351C21.8595 31.8351 22.0258 31.8734 22.1793 31.9502C24.0981 32.9096 25.9529 32.9096 27.8589 31.9502C28.4217 31.7071 29.0741 31.963 29.3172 32.5258C29.5474 33.0503 29.3427 33.6515 28.8439 33.9329C26.2983 35.1993 23.7271 35.1993 21.1816 33.9329C20.6315 33.6515 20.4141 32.9863 20.6827 32.4363C20.8746 32.0525 21.2583 31.8223 21.6804 31.8223" fill="#504122"/>
</g>
<defs>
<clipPath id="clip0_7223_6289">
<rect width="40" height="40" fill="white" transform="translate(5 5)"/>
</clipPath>
</defs>
</svg>
